<svg xmlns="http://www.w3.org/2000/svg" viewBox="0 0 210 25"><path d="M1,17.19c.07-.84.86-.83,1-1l2-.35a2.58,2.58,0,0,0,2.37-2L6,14.8l.68-3.41C6.2,11.28,2.3,11.2,2,10.71c0-.55-.11-2,.34-2.38a13.15,13.15,0,0,1,4.4-.69c.09-.79-.37-2.23-.16-3S9,4.06,9.42,3.9h.34A26.72,26.72,0,0,0,10.44,7c3.11-.31,3.59,1.25,3.38-2.38a3.49,3.49,0,0,1-.34-2.05,1.52,1.52,0,0,1,1-1h1.36a16.15,16.15,0,0,1,1.69,4.77c.76.14,2.62.14,3,1s.36,2.33-.34,2.73a16.9,16.9,0,0,1-2.7.34v3.41a7.09,7.09,0,0,1,3,.34c.43.42.35,1.85.34,2.39a3.81,3.81,0,0,1-1,.68c-2.54.69-2.29,2-3.15,4.62a14,14,0,0,1-2.93.83l-.34-1s-.65-3,0-3.07c-1.17.12-4.34-.4-4.73,1-.11.36-.68,2.73-.68,2.73a1.46,1.46,0,0,1-.68,1l-.67.34C3.79,24,5,21.27,5,19.57c-.19,0-3.28-.39-3.39-.34S.82,18.9,1,17.19Zm11.16-2.73a2.09,2.09,0,0,0,1.35-.34c-.91,1.48.5-3.11.34-3.07l-3.38-.34-.34,3.75Z" fill="#fff"/><path d="M20.92,17.19a2.61,2.61,0,0,1,1.69.34,9.19,9.19,0,0,1,1.69.68c1.94.62,3.75,1.9,5.75,2.39l1.69.34a10.26,10.26,0,0,0-.34-3.41C30.75,14.7,29.48,11.88,29,9a16.62,16.62,0,0,1-.67-3.07C27.93,5.51,28,4.1,28,3.55c.65-1.69,1.56-1.35,3-1.36a8.49,8.49,0,0,1,.68,2.73c.91,3.18,2,6.42,3,9.54.24,1.13.78,2.62,1,3.75V22.3A5.19,5.19,0,0,1,34.45,24c-.69,1.15-4.7.54-5.75.69A21,21,0,0,1,24.64,23a15.68,15.68,0,0,1-2-1.36c-1-.74-.94-.26-1.35-2.05Z" fill="#fff"/><path d="M36.52,12.81a20.42,20.42,0,0,1,1-5.85,5.18,5.18,0,0,1,1-2.74,4.88,4.88,0,0,1,2.05-1c1.27-.53,3.44-.57,4.74-1a18.64,18.64,0,0,1,5.41-.68c1.18.33.8,1.65.67,2.73-.05.43-.42.53-.67.68a73.34,73.34,0,0,1-9.47,1.7l-.32.09c-.25,4.71.66,4,.66,4,2.27,0,7.56.43,9.8.68a1.9,1.9,0,0,1,.79.34,1.87,1.87,0,0,1-.63,2.18A9.33,9.33,0,0,1,47,14.8h-7.1c-.37-.08-.36.49-.35.71A4.93,4.93,0,0,0,39.66,17l.13.39c0,.06.05.11.07.16a2.39,2.39,0,0,0,.26.57,2.51,2.51,0,0,0,.53.55,11.48,11.48,0,0,0,5,1.67c.23,0,.45,0,.68,0,.57-.12,1.09-.89,1.35-1.36.88-.61,1-.06,1.36.68,0,.74.08,2.76-.34,3.41-.54,1.72-3.37,1.32-4.74,1.37a28,28,0,0,1-3.69-.48A7.42,7.42,0,0,1,38,22.25c-1.45-1.77-1.25-1-1.66-4.06C36.3,18.19,36.4,14.17,36.52,12.81Z" fill="#fff"/><path d="M193.28,12.81c.16-1.8.24-4.2,1-5.85a5.18,5.18,0,0,1,1-2.74,4.82,4.82,0,0,1,2-1c1.27-.53,3.43-.57,4.73-1a18.72,18.72,0,0,1,5.41-.68c1.19.33.81,1.65.68,2.73-.05.43-.43.53-.68.68A73.18,73.18,0,0,1,198,6.62l-.33.09c-.24,4.71-.34,4,.66,4,2.58.1,7.56.43,9.81.68a1.9,1.9,0,0,1,.79.34,1.86,1.86,0,0,1-.64,2.18,9.28,9.28,0,0,1-4.55.89h-7.1c-.36-.08-.35.49-.35.71a4.62,4.62,0,0,0,.16,1.44l.13.39c0,.06,0,.11.07.16a2.39,2.39,0,0,0,.26.57,2.51,2.51,0,0,0,.53.55,11.43,11.43,0,0,0,5,1.67c.23,0,.45,0,.68,0,.57-.12,1.09-.89,1.35-1.36.88-.61,1-.06,1.35.68,0,.74.09,2.76-.34,3.41-.53,1.72-3.36,1.32-4.73,1.37a27.84,27.84,0,0,1-3.69-.48,7.3,7.3,0,0,1-2.26-1.62c-1.45-1.77-1.25-1-1.66-4.06C193.06,18.19,193.16,14.17,193.28,12.81Z" fill="#fff"/><path d="M52.37,3.9c.65-1,1.4-.65,2.36-.69a6.4,6.4,0,0,1,1.36,3.07c1.5-3.07.45-4.31,4.39-5.45a15.12,15.12,0,0,1,7.78,2,21,21,0,0,1,2,1.37,28.17,28.17,0,0,1,3.38,3.4c.51.81.93,1.88,1.35,2.73a11.39,11.39,0,0,1-.34,6.14A3.06,3.06,0,0,1,74,17.66c-.53.67-1.14,1.31-1.7,1.91a6.88,6.88,0,0,0-1.35,1,12.74,12.74,0,0,1-2.37,1,12.74,12.74,0,0,1-2.37,1c-1.83.44-4.27,1.13-6.09.34a8.91,8.91,0,0,0-2.7-1c-1.51-.53-1.39-3.13-2-4.43a70.47,70.47,0,0,1-2-7.84c-.52-.09-.57-2.73-.67-3.07Zm8.79.34c-3.51.39-1.66.67-3.38,2.72-.53.42-1.19.48-1,1.37a23.36,23.36,0,0,1,1,3.06c.69,2.2,1.33,4.62,2,6.82l.33.68h3.39a15.33,15.33,0,0,0,4.39-1.7,5.91,5.91,0,0,0,1.69-1A5.23,5.23,0,0,0,71,14.46a4.22,4.22,0,0,0-.34-3.75,14.69,14.69,0,0,0-3.17-3.77A14.25,14.25,0,0,0,65.22,5.6a17.33,17.33,0,0,0-2.71-1C62.28,4.53,61.4,4.14,61.16,4.24Z" fill="#fff"/><path d="M75.57,14.89A31.61,31.61,0,0,1,77.73,5.6l.67-1.7a.73.73,0,0,1,.34-.69c2.26-.7,2.61-.41,4.06,1,1.75,1.72,2.22,4.5,3,6.81.76,1.4,4.74,8.19,5.08,8.52,1.35-1.05,1.87-2.85,2.36-4.43,1-2.77,1.27-8.28,1.36-11.24.43-.48,2.14-.33,2.7-.35a3.94,3.94,0,0,1,1,1.37c-.08,1.32.19,7-.34,8.18a52.59,52.59,0,0,1-1.69,5.79c-.31.61-.72,1.44-1,2.05a11.28,11.28,0,0,1-2.37,2.38,4.82,4.82,0,0,1-4,0,6.7,6.7,0,0,1-2.76-2.68l-.62-1.07c-.31-.6-.72-1.43-1-2-.74-1.4-1.24-3.05-2-4.43a9.07,9.07,0,0,1-.67-1.71,8.62,8.62,0,0,0-.68,2.73c-.42,1.82-1.12,6.57-3,7.16-.84,0-2.14,0-2.37-1Z" fill="#fff"/><path d="M155.19,14.89a31.61,31.61,0,0,1,2.16-9.29L158,3.9a.71.71,0,0,1,.34-.69c2.25-.7,2.6-.41,4,1,1.75,1.72,2.22,4.5,3.05,6.81.76,1.4,4.73,8.19,5.07,8.52,1.35-1.05,1.87-2.85,2.37-4.43,1-2.77,1.26-8.28,1.35-11.24.43-.48,2.14-.33,2.7-.35a3.82,3.82,0,0,1,1,1.37c-.08,1.32.19,7-.34,8.18A52.59,52.59,0,0,1,176,18.89c-.3.61-.71,1.44-1,2.05a11.42,11.42,0,0,1-2.36,2.38,4.84,4.84,0,0,1-4.06,0,6.63,6.63,0,0,1-2.75-2.68l-.63-1.07c-.3-.6-.72-1.43-1-2-.73-1.4-1.24-3.05-2-4.43a9.8,9.8,0,0,1-.67-1.71,8.62,8.62,0,0,0-.68,2.73c-.42,1.82-1.12,6.57-3,7.16-.84,0-2.14,0-2.37-1Z" fill="#fff"/><path d="M98.36,18.89a60.35,60.35,0,0,0,3.38-7.84c.74-1.22,1-2.83,1.69-4.09a18.84,18.84,0,0,0,1-5.45,2.62,2.62,0,0,1,3.38-.68c.24.74,1.12,1.31,1.36,2a47.6,47.6,0,0,1,2,5.46c1.13,3.33,2.25,6.79,3,10.22.44,1,.34,3.32.34,4.43-.4.39-1.53.37-2,.34-1.81-.16-1.72-2.73-2-4.09a24,24,0,0,1-.68-2.38c-.57,0-1.43.58-2,.68a42.07,42.07,0,0,1-5.07.68l-1,2.05-.68.34c-.27.15-1.73.9-2.34.3A2.28,2.28,0,0,1,98.36,18.89Zm8.45-11.25a49.22,49.22,0,0,1-1.69,4.78c-.09.34-.29,1.55-.68,1.7l.68.34c3.1-.16,4.84,2.41,3.72-1.7-.43-1.28-.93-2.81-1.35-4.09C107.34,8.42,107.3,7.44,106.81,7.64Z" fill="#fff"/><path d="M138.14,18.89a60.35,60.35,0,0,0,3.38-7.84c.75-1.22,1-2.83,1.69-4.09a18.51,18.51,0,0,0,1-5.45,2.63,2.63,0,0,1,3.39-.68c.23.74,1.12,1.31,1.35,2a49.61,49.61,0,0,1,2,5.46c1.12,3.33,2.24,6.79,3,10.22.44,1,.34,3.32.34,4.43-.4.39-1.53.37-2,.34-1.81-.16-1.71-2.73-2-4.09-.21-.56-.54-1.79-.68-2.38-.57,0-1.43.58-2,.68a42.5,42.5,0,0,1-5.08.68l-1,2.05-.68.34c-.27.15-1.73.9-2.33.3A2.29,2.29,0,0,1,138.14,18.89Zm8.45-11.25a46.7,46.7,0,0,1-1.69,4.78c-.09.34-.29,1.55-.68,1.7l.68.34c3.1-.16,4.85,2.41,3.72-1.7l-1.35-4.09C147.12,8.42,147.08,7.44,146.59,7.64Z" fill="#fff"/><path d="M114.88,7.8c-.41-1.93-1-2.7,1.33-3.15l2.1-.41h2l.34.68A10.38,10.38,0,0,1,122,8.67a17.28,17.28,0,0,0,1.35,3.75c.92,1.44,1.83,1.05,2.7,0a9,9,0,0,0,1.36-1.71,12.87,12.87,0,0,0,1.35-2c.12-.28,1.48-2.16,1.69-2.73.11-.27,1.35-2.39,1.35-2.39.35-.54.48-.68.68-1,.38-.66,1-1.89,1.69-2,1.7-.35,2.74-.47,3.38,1.36.39,2.84,1.11,20.32-.68,22.5-1,.72-2.06.21-3-.35,0-3.09,0-12.77,0-16,.16.32-1.21,1.83-1.35,2-.87,1.26-3,4.42-3.72,5.45A9.54,9.54,0,0,1,127.65,17a9.45,9.45,0,0,1-5,.5l-.61-.45a3.38,3.38,0,0,1-1.08-.91s-.32-.33-.42-.47a9.94,9.94,0,0,1-.93-1.92c-.11,1.2.09,5.07-.34,6.13a2.85,2.85,0,0,1-1,1,3.85,3.85,0,0,1-2.71-.34c-.64-1.71-.41-6.11,0-7.84A18.71,18.71,0,0,0,114.88,7.8Z" fill="#fff"/><path d="M178.45,17.32a1.57,1.57,0,0,1,.29.14,1,1,0,0,0,.21.1,9.72,9.72,0,0,1,1.51.61l.15.07c1.91.63,3.69,1.88,5.66,2.36l.65.13a.88.88,0,0,0,1.05-.9,8.31,8.31,0,0,0-.32-2.24.56.56,0,0,1,0-.12c-.64-2.77-1.88-5.54-2.33-8.36a.7.7,0,0,0-.06-.19,16,16,0,0,1-.6-2.74,1,1,0,0,0-.12-.35,4.81,4.81,0,0,1-.26-2.12.92.92,0,0,1,.07-.32c.56-1.31,1.32-1.24,2.45-1.21a.86.86,0,0,1,.81.64A18.6,18.6,0,0,1,188,4.87.29.29,0,0,0,188,5c.9,3.15,1.93,6.36,3,9.45l0,.1c.24,1.09.74,2.51,1,3.61,0,.06.09,1,.09,1.1L192,22.13a.8.8,0,0,1-.08.37,5.5,5.5,0,0,1-1.2,1.43l-.1.12c-.73,1-4.35.54-5.57.62a.82.82,0,0,1-.31,0A21.52,21.52,0,0,1,181,23a1.67,1.67,0,0,0-.2-.08c-1.35-.71-1.51-.65-2.15-1.4s-.74-.35-1.12-1.95c0,0,0-.05,0-.08l-.18-1.25A.88.88,0,0,1,178.45,17.32Z" fill="#fff"/></svg>