<svg xmlns="http://www.w3.org/2000/svg" viewBox="0 0 100 26"><rect width="100" height="26" fill="#ec1c24"/><path d="M27.47,17.58a3.81,3.81,0,1,1,3.81-3.81,3.82,3.82,0,0,1-3.81,3.81m0-11.71a7.9,7.9,0,1,0,7.9,7.9,7.9,7.9,0,0,0-7.9-7.9" fill="#fff"/><path d="M76.92,6.37H72.79v9.06a2.22,2.22,0,0,1-2.26,2.5,2.28,2.28,0,0,1-2.31-2.32V6.37H64.14a.32.32,0,0,0-.32.31v8.51a6.34,6.34,0,0,0,6.71,6.53,6.29,6.29,0,0,0,6.7-6.58V6.68a.31.31,0,0,0-.31-.31" fill="#fff"/><path d="M62.48,7.66a1.13,1.13,0,0,0,.1-.43c0-.14,0-.86,0-.86H51.33a.32.32,0,0,0-.31.31V10h5.26l-5.09,10.1a.5.5,0,0,0-.07.13,1.08,1.08,0,0,0-.08.39c0,.14,0,.87,0,.87H62.57V18.14a.33.33,0,0,0-.31-.31H57.2L62.48,7.66" fill="#fff"/><path d="M93.12,6.37a1.35,1.35,0,0,0-1,.26h0l-5.8,5.75L80.53,6.64h0a1.33,1.33,0,0,0-1-.26H79V21.52h4V14.23l3.39,3.53,3.3-3.39v7.15h4V6.37Z" fill="#fff"/><path d="M48.93,6.37h-4v6.55L38.11,6.63a1.37,1.37,0,0,0-1-.26h-.56V21.52h4.18V14.81L48,21.54h1.25V6.68a.32.32,0,0,0-.31-.31" fill="#fff"/><path d="M18.08,10.1l-3-3-4.38,4.07V6.37H6.78a.32.32,0,0,0-.31.31V21.57h4.21V16.76l4.8,4.76h5.61L13.91,14.3Z" fill="#fff"/><rect x="16.66" y="4.24" width="4.26" height="4.26" transform="translate(1 15.16) rotate(-45.01)" fill="#62ba46"/></svg>