<svg xmlns="http://www.w3.org/2000/svg" viewBox="0 0 768 492.44">
  <path d="M768,294.75c-3.3-1.73-88.68-46-104.07-22.65C648.23,295.94,588.29,293.92,554,304s-37.69,31.7-37.69,31.7c-3.57-2.08-7.56-4.51-11.9-6.92-.11-4.43-.1-9.93.58-10.21,1.15-.48.68-1.07.77-1.46s-.87-1.44-2.07-3.25-.47-1.14-1.75-1.25-1.1-1.64-.83-2.46.85-.95.48-2.48-.69-2.77-2.19-2.53a3.4,3.4,0,0,1-3.32-1c-.44-.72.59-1,2.79-3s-.12-1.46-1.12-2.4-1.67.14-3.09.89-1.42.19-1.71-.29.22-2,.26-3.56.27-.82.93-2.1,1.3-1.12,2.8-1.91a11.29,11.29,0,0,1,2.7-1c1.35-.49,1.13-.13,1.76-.18s.84,1,1.49,1.73,2.28-.39,3.39-.73.58-.68.8-2.13,0-.55.37-1.21-.18-.66-1-1.06-.89,0-2.39.23-1.48-.09-1.74-.7a6.42,6.42,0,0,1-.25-2.6c0-1.22-1,0-1.53.38a3.28,3.28,0,0,1-1.48.46,1.78,1.78,0,0,0-1.05.63c-.35.32-.4.79-.36,1.76s-.53.76-1.82,1-1.23-.58-1.58-1.35a6,6,0,0,1-.05-3.16c.19-1.32.55-1.1,1.16-1.36s.92-.12,2.47.81,1-.08,2.06-.58.51-1,0-1.65a11.52,11.52,0,0,1-1.73-2.13c-.45-.94-.12-.92.33-1.63s1.13-.14,2.32,0,.91.77,1.57,1.69,1,.93,1.6,1.55-.17.44-.8,1-.19.77.12.92.84-.07,1.8-.11.76,1.08.9,2.21,1.66.75,1.89.94a3.26,3.26,0,0,0,1.85.53c.89,0,.56-.34.88-1.63s-1.29-2-1.63-2.53a6.33,6.33,0,0,0-1.88-2.38c-1.07-.67-1.88-1.28-2.64-1.81a1.85,1.85,0,0,1-.36-2.41c.45-.71.64-.39,2.14-1.19s2,.9,2.34,1.88A24.24,24.24,0,0,0,510,279c.69,1.33.82,1.91,1.36,2.8s1.33,1.83,1.72,2.47.32.36.5,1a2.56,2.56,0,0,1-.86,2.39,3.79,3.79,0,0,1-1.72,1.15c-1.23.52-.5.63-1,1.68s.13,1.12.5,1.56,1,.3,2-.12a17,17,0,0,1,2.15-1c.34,0,.15,1.34.32,2.34a7.54,7.54,0,0,1-.51,2.61c-.08.6,1,1.95,1.44,2.2s2-.46,3.35-1.36-.1-1.81-.33-3.1-.59-2.06-.77-3.26-1.46-.77-1.65-1.64-.12-1.47,1-2.78,2.13.25,3.07.35,1.82,1.2,2.16,1.76-.41,1.68-.47,2.48-.56,1.44-.91,2.86,1.44,1.11,2.63,1.26,1.58-.29,2.58-1,.1-1.83-1.14-2.61-.38-1.53,0-2.74.72-1,1.25-1.2,1.29.87,2.43,1.83.73,1.21,3.42.57.72-1.53,1.08-2.2-.26-2.8-1.7-3.36a6.16,6.16,0,0,0-4-.31c-1.32.36-.66-.91-.78-1.28a3.41,3.41,0,0,1,.32-1.84c.25-.49,1.4-.41,3-.63s1.52-1.13,1.85-1.66-.63-1-1.15-1.72-1.08.21-1.72.6a6.27,6.27,0,0,1-1.77.52,3.38,3.38,0,0,0-1.8,1.2c-.42.58-.37,1.76-1.7,3s-.81-.6-1.09-1.43-.24-1.49-.82-1.91-.55,0-1.23.52-.35.87-.7,1.74-1.42.75-2.45,1-1.72-1-1.92-1.36-1-1.9-.84-2.12,1.07-.22,3.72-.39,1.12-1.23,1.72-1.7.44-1.8.28-2.8-.89-.56-1.65-1.09-.77.36-1.5.79a4.85,4.85,0,0,0-1.83,1.88c-.67,1.06-1.49.79-2.72.77s-.9-.77-1.1-1.64.35-1.42,1.06-2.07,1.43-.54,2.12-.85a15,15,0,0,1,3-.7c1.29-.23,1.93-.62,3.35-.82s1.14.08,1.72.5.31.69.72,1.54,0,.63,0,1.56a4,4,0,0,0,.13,2.23c.31.69.54.33,1.89.39.51,0,.63-.59,1.12-1.22s.32-.75.42-1.68.16-.65.44-1.26,1.75.7,1.75.7a10.38,10.38,0,0,1,1.64,0c.6.07.71.44,1.29.86a8.22,8.22,0,0,1,1.59,1.35c.64.71.93-.45,1.9-1s.48-.84.8-1.58-.17-1-.77-1.63-1.11-.2-2.38-.31-.73-.66-.57-1.3a13.37,13.37,0,0,1,1-2c.58-1.23-.92-1-1.53-1.27s-1.37.28-2.34.86-.78.7-1.26,2.09-.89.53-1.85.57-.83-.27-2,0-1-.8-1.24-1.33.25-1,.73-1.88a4.4,4.4,0,0,1,2.7-1.52c1-.3,1.78-.52,2.65-.72a11,11,0,0,0,2.43-.7c.48-.29.64-1.49.67-2.16s-.93-1-1.3-1.42-.51-.12-1.46.12-.33.2-1.24.86-.4.79-.8,1.58-.73.44-1.55.72a3.24,3.24,0,0,1-2.09.16c-.78-.19.06-1.35-.07-1.93s-.94-.64-1.71-.83-.78.36-1.18.6-.58.68-.94,1.34-.06,1.35-.19,1.87a8.45,8.45,0,0,1-1.72,2.25c-.85.95-1.88,1.24-3.21,1.94a17.66,17.66,0,0,1-2.84,1.5,6.33,6.33,0,0,1-4.39.35c-2.07-.51-.59-1.51-.64-2.14a5.71,5.71,0,0,1,1.2-2.38,4.72,4.72,0,0,1,2.22-1.23,6.54,6.54,0,0,1,2.08-.38,2.31,2.31,0,0,1,1.89.95c.34.56,1.59-.09,2.52-.54s-.45-1.48-1.07-2.32,0-1,.3-1.5a2.93,2.93,0,0,1,1.76-1.28c.54,0,1.09-.55,2.51-1.3s.5-2.06.18-2.42-.58-.41-1.37-.81-1.13.68-1.43,1.08a2.63,2.63,0,0,1-2.19.56c-.49-.26-.44-1.27-1-2s-1.16-.28-2.59.25.18,1.21.57,3-.51,1-2.19,1.65-.77-.74-1.63-.88-.65-1.25-.55-1.64a9.27,9.27,0,0,1,.43-2.56,17.54,17.54,0,0,0,1.37-2.81c.34-1.09-.21-1.08-1-1.61s-.7-.24-2.13-.25-.74.77-.2,1.66.17,2.64-.55,3.63-.91-.23-1.54-.72-.87.19-1.52,1.47.24,1,.55,1.64.84.48,1.94.48.68,1.12.26,2.25-.83,1.71-2.63,2.36-1.07-.67-2.6-1.39-.61.26-.68,1.07.34.56,1.06,1.56-1.11.34-1.43,1.08.21.53,1.07,1.77.11.92.2,2-.85.95-2,1.63-1.29.23-2.79.48-1.43-1.11-1.66-1.85a14.65,14.65,0,0,1,0-3.54c.06-1.36-.43-3.26-.3-3.77a4.26,4.26,0,0,1,.89-2,2,2,0,0,1,2.19-.56c.66.37.42.51,1.53.72s.79-.15,2-1.76.06-.81-.54-2-.06-.84-.77-1.29a3.32,3.32,0,0,0-2.07-.51c-.76,0-.61-.84-.79-1.5a2.08,2.08,0,0,1,.47-1.93c.53-.76.66-.73,1.64-1.1s.73.11,1.63.33.29.48.62,1.38.8.07,1.9-.49.53-.76.92-2.64,0-1,.18-1.53.91-.67,2.12-.85,1.58.25,3.05.13.71-.09,1.64-.55,1.43,0,2.37.65.42.52.47,1.69-.38,1-1.74,2.38c-.34.33-.11.72-.06,1.35s.45.39,1.29.87.58-.13,1.49-.8.24-.69.32-1.84-.07-.83.78-1.79.74-.22,2.21-.34,1.31,0,1.9.6.43,1.06,0,2.4-.4.8-1,1.18-.45.71-.35,1.42.8.61,1.35.61,1.32-.91,1.83-1.87-.05-.63.79-1.25,1.45.22,2.34.78.34,1.11.55,2.19-.15,1.2-.86,1.84a2.43,2.43,0,0,0-.64,2c0,.67,1.36.6,2.61.5s.65-.39,1.51-1.68.44-.92.72-3.18.34-2,1.24-2.84,1.47.43,3,.73,1.53-.92,3.06-2.39.41-2.78-1.8-3-1.2-.7-2.09-1.26-1.88,1.24-3.17,1.47-1.28.78-1.85,1.12a6.77,6.77,0,0,1-1.64.56c-.37.11-1.11.34-2.14.63s-.71-1-.54-1.43,0-1.1-1-1-1-.18-2.4-1.07-.57-1.31-.43-1.61a11.5,11.5,0,0,1,3.33-1.58c1-.29,1.26,1,1.7,1.72s.67,1.46,1.67,1.85.71-.65,1.17-1.7a2.14,2.14,0,0,0-.93-2.62c-.86-.69,1.1-4.73,1.74-5.67s-2.63-.71-2.94-.86-2.65,1.61-3.25,1.53.07-2.24.1-2.92-1.91-2.25-3.15-1.93a1.77,1.77,0,0,0-1.26,2.08c.19.32,1.07,2.86,1.56,3.67s-.78,2.34-1.28,3a9.24,9.24,0,0,1-3.38,2c-1.43.54-1.08-1.43-1.07-2.32s1.61-1.52,3-2.55-.62-2.48-1.19-2.14-1.72-.5-1.55-1.48-1.25-1.33-2.28-1.59-2.15,1.53-2.57,2.11.8,2,2.09,2.91-.35.87-1.4,1.5.15,1.34,1,2.16,0,1.64-1.17,2.24-2.55-.22-3.48-.31-.85-1.58-.3-2.13a4,4,0,0,0,1.17-2.79c-.06-1.17-2.45.49-2.95,0s.28-1.16.55-2a19.16,19.16,0,0,1,1-3.37c.75-1.66.9-.87,2.92-2.43s1.32-2,1.31-3.09-.64-.71-2.18-1.43-1.71,1.7-2.37,3.52-2.22,1.78-2.09.17-1.05-3-1.66-3.83-1.45.87-2,2.18-.1,1.28-.15,2.84a5.77,5.77,0,0,0,.38,2.62c.3,1-.27,1.38-.19,3.31s-.38,2.64-.36,4.5-.78,1.79-.8,2.68-1.42,2.72-2.93,3.31.35-.32-.3-2.13-1-.8-1.88-1.83.14-2.5.67-2.71a11.11,11.11,0,0,0,2.83-.94c1.5-.8-.31-1.79-1.14-3.7s-1.41.74-2.59,1.34-1.66-.2-1.29-.86a33,33,0,0,0,.86-3.49c.36-1.21,1-.79,1.91-.83s1.42.35,2.34.24.53-1.31.46-2.7-1.55-.93-1.93-1.91.41-2.22.9-3.06-.8-1.5-1.4-2.12-1.64.55-2.35,1.2-.86,2.38-.73,3.51-.75,2.21-2.24,3.56-.9-.77-1.33-1.84-.16-1,1.17-2.24,1-2,1.17-3.34-.91-.22-1.5.25-2.62,1.47-2.53.54a4.75,4.75,0,0,0-.72-3.19c-.65-.71-1.29.78-2.17,1.86a6.65,6.65,0,0,0-1.05,3.16c-.19.78.61,1.39.94,2.29s1.3,2,1.85,3a10.91,10.91,0,0,1,1.36,2.8c.22,1.08.62.84,2.13,1.35s.54,1.43-.23,2.34a1.05,1.05,0,0,0,.18,1.75c.41.31.44,1.27.56,2.19s-1.09,1.1-1.85,1.12-.95,1.34-1.22,2.16,1.07,1.23,1.72,1.93,1.47,1,3.16,1,1.42.35,2.17,1.22,0,3.42-.73,4.61-.91-1.31-1.56-2.57-2.11-.59-2.69-.46-.82.83,1.33,3.48.28.27.85,1.58-.42,1.13-1.33,2.89.55,1.09,1.14,2.05a17,17,0,0,1,1.45,4.4,1.57,1.57,0,0,1-2,1.55c-1.24-.23-1.79-.78-2.71-.12s-.6,1.36-.23,2.34a6.61,6.61,0,0,0,2.54,2.75,4.12,4.12,0,0,1,2,2.28c.24.95-1.49,1.89-2.14,2.28s-1.37.28-1.87-.74a4.8,4.8,0,0,0-1.7-1.71,5.67,5.67,0,0,1-.88-3.09,4.84,4.84,0,0,0-1-2.71c-.3-.69-1.38-.48-2.12-.25s-.82,1.37-.09,2a2.07,2.07,0,0,1,0,2.74c-.66.73-1.86-.52-2.42-1.28s-2.28.06-3.18.38-.91,1.21-.75,2.21,1.38,1.92,1.75,2.9,2.08.17,4.31.58a35,35,0,0,0,3.95.36c1.66.2,1.56.59,2.24,1.71s1.2,1.8,1.59,2.45a14.89,14.89,0,0,1,1.87,4.91c.14,1.67-1.12,4.85-1.94,6.22s-1.92.83-3.42.53-1.42-1.44-2.21-2.39.06-1.9,1-2.49,1-2.23,1.42-3.82-1.07-.68-2.84-.7-.41-1.4.2-2.76-.94-1.74-1.94-2.12-1.69.47-2.56,1.22.13,1.13.93,2.62,0,1.1-1.11,2-1.57.29-2.83.4-.92-1.53-.69-2.77.49-2.83.85-3.15-.25-1.5-.8-1.5a8,8,0,0,1-3-1.27c-.19-.33.6-2.46.75-2.76s.49-2.28-.58-2.95.11-1.27.94-3,2-1.43,2.3-1.29,1,1.4,1.19,1.6,1.38-1.17,1.68-2.12-1-1.4-.89-2.21,1.83-.78,2.77-.68,1.5.85,2.23,2.05,2.77-1.23,4.13-2.61-.73-1.75-2.92-2.29-1.55.16-2.78.14.16-1.2,1.74-2.59,2.31-1.07,3.31-1.24,0-1.56-1.25-1.88-.66-.91-.73-1.75.84-3.15,1.54-3.45.23-2.34-.37-3-1.59.09-2.89,1.2-.57,3.42-1.12,5.07-1.08-.88-1.48-1.74-1.59-.8-2.53,0-.35,1.42.55,2.19a5.42,5.42,0,0,1,1.72,3c.12.92-2,1.89-2.9,1.2s-1-2.78-2.12-2.78-1.4,1-2.12,2.49.74,1.76,1.4,2.67-.54,2.2-1.95,3.49-1.78-1.12-2.17-2.31.19-4.4.32-4.92,1-2,2-2.1,1.61-1,1.86-2a6.57,6.57,0,0,0-.47-3.33c-.35-1.11.44-2.9.77-3.44s1.92-.28,2.58.09,1.82-.44,2.25-1.36.64-1.49,1.21-1.28,1.7-.81,2.78-1.57,1.31-3.1.6-4.65-1.71.27-2.84-.15,1.14-2.11,2.1-3.24.28-2.26-.64-2.15-1.29.24-1.66-.75-.09-3.24-.26-4.23-.8-2.6-.83-3,1.88-2.89,2.78-3.76.1-3.47-.39-4.27-1.85,0-2.8,1.36-1.39,3.7-2.87,4.16-1.68-2.06-1.87-3.27-2.31.53-3.08,2,.92,2.07,1.14,3.15,2,1.53,2.74,2.19a8.19,8.19,0,0,0,2.2,1.63c.7.24.7,2.43.93,3.72s-2,1-3.33.48-2.21.89-2.67,1.94.35,2.21,1.22,3.11,1.68.41,2.36,1-.35,1.42-1.4,2a13.24,13.24,0,0,1-3.25,1.53c-.92.11-1-1.48-1.41-2.88s0-1.77.59-3.21-.08-1.93-.69-3.32,0-1.77.71-2.63a15.1,15.1,0,0,0,1.41-2.39c.71-1.19-.83-1.91-1.59-3s-1.92-.81-3.25-.12-.41,2.78-1.47,3.75-1-.39-.85-1-.72-1.21-2-2-.62-1.39,0-3.21-1.49-1.19-2.57-.43-.78,1.25-1.21,2.17-.17,1.53,0,3.75.52.68,3.55,1.15.44,1.27.29,3-1.16.27-2.33-.57-1.22,0-2.52,1.09-.08,1.15.15,2.43,1.57.59,2.41,1.07,2.11.05,4.33-.64,2.29.7,2.71,1.22-.09,2.58-1.23,3-1.95-.69-3-.81-.93.45-2.31,1.07-1.07-.13-2.57-.43-2-.43-2.21-1.84-1.36-1.16-2-1.74-.57-1.85,1.34-3.77-.44-2.37-1-3.47-2,.25-3.11,1.22-.75,2.22.27,3.36,1,2.44,1.18,4.12-1.13.68-1.62-.13-1-.8-2.21-1.29-1.91.83-2.6,2.23.82,1.37,1.49,1.74a4.46,4.46,0,0,0,3.19.92c1.76-.18.78.74,1.26,1.54s-.05,1.9.35,2.76,1.55.93,2.55.21.08-1.14.17-2.62,1-.72,1.95-.41a5.61,5.61,0,0,1,2.49,2.11,11.78,11.78,0,0,1,1.65,4.38c.15,1.34,1.64,1.43,2.91,1s.33-1.63-.16-3,.21-1.66,1.21-1.83,2.21,2.4,2.64,4,0,1.85,0,2.87-1.31,2-1.79,2.29-1.6.09-3-.94-1.9-.06-2.48.62.51,1.56.67,2a3.06,3.06,0,0,0,1,1.06c.23.2,1.34.4,1.95.69a13,13,0,0,1,2.22,1.85c.5.46.77,2.72,1,3.59s-1.57,1.94-2.55,2.86-1.82-.11-3-.18-2-1.11-2.76-1.85a1.57,1.57,0,0,1-.25-2,10.3,10.3,0,0,0,2-2.44,2.41,2.41,0,0,0-.55-2.19c-.35-.57-1.25-.24-1.86.57a4.13,4.13,0,0,1-2.54,2c-1.28.23-.4-1.4-.66-2a6.76,6.76,0,0,1-.24-2.38c.05-.47.71-1.75,1.08-1.86a11.89,11.89,0,0,0,2.73-1.66c.87-.74.22-2,.09-2.57a2.45,2.45,0,0,0-2.46-1.16c-1.12.14-2.23,3.22-2.69,4.27s-1.11-.21-1.34-1,.41-2.22.67-3.26-1.78-1.12-2.52-.89a4.27,4.27,0,0,0-2.22,1.78c-.4.79.76,1.63,1.44,2.2a11.65,11.65,0,0,1,1.85,3.61c.28.82-1.48,1-2.73,1.1s-1.56-2-1.83-2.84-1.44-3.64-1.2-4.33.25-2.13,1-2.83.74-1.32,1.15-3-1.55-1.19-1.91-1.49-2,1.23-2.62,1.41-.92-.66-1-1.32a7.58,7.58,0,0,1,.5-2.91,24,24,0,0,0,1.18-3.49c.18-1.15-.34-1.7.53-2.57a8.08,8.08,0,0,1,2.43-2c1.66-1,.93-4.2.42-4.76s-3.15,2.25-4.26,4.14-2.16,3-3.28,3.19-1.2-2.56-.75-4.4-3.16-.35-4.48.63-.4,1.63-.65,2.65,3,3.76,5.36,4.56.83,2.8.78,3.87-2.09,1.44-3.59,1.82-1.25-1.5-.34-3.43-1.36-2.83-2.13-4.1-2.29-.35-2.75.62,1.08,2.65.86,4-2.45-.6-3.47-2.59-2.81,0-3.49.55-.17,2.88,1.57,3.74,4.89,1.2,6.44,1.48-.32,1.76-1.51,2.65-1,1.28-.4,2.5,1.86-.08,3.2-1.59,2.11-2,3.05-1.84.93,3.25,1.49,4.47,2.76,1.11,4.16,1.13,1.59,4.07,1.14,5-2,1.23-3.67,1.7-.81-1.07-.51-2.29a2.06,2.06,0,0,0-2.2-2.49c-1.45.18-1.23-2-1.52-3.08s-1.8.75-2.28,1.38a1.46,1.46,0,0,0,.51,2.3c1.1.37,1.08.91,2,1.57s-1.73,2.6-3.35,3.06-2.89-2.76-2.92-4a8.58,8.58,0,0,0-1.52-3.94c-.59-.69-1.84-2.18-1.95-3.51s-2.06-.83-2.87-.17-.76,3.06.14,3.39a7.1,7.1,0,0,1,3.09,2.82c.48,1.09-3.39.14-4.26.14s-1.2-.84-1.18-3.1-4-2.28-4.74-2.69-2.08,2.3-2,2.76,2.17,2.16,3.88,2.69.77,1.27.67,2.54-1.73.87-2.51,1.87,1.3,1.29,3,1.29,1.93-.82,4.73-2.51.87,1.72,1.29,3.56-3.59,2.68-4.86,3.45-2.39-.8-3.34-.93-3.06-.75-3.62-2-2.52,1-3.84,2.84,1.13,1.57,5.2.85,2.53,1.59,4.06,2.4,2.8,0,4.2-1.67a16,16,0,0,1,5.31-3.56c1-.41,1.07.91-.15,2.34a2.28,2.28,0,0,0,.12,3.06c.23.38,2.64-1.08,3.78-2.64s.85,1.4,1,2.85,2.78,1.44,4.05,1.54,1.43-1.38.45-2.7-1.91-1.44-1.74-2.59,1.3-1.3,1.68-1.54a3.16,3.16,0,0,1,2.73,1.65,3.09,3.09,0,0,0,1.71,2.26c.9.33,1.27-.77,2.95-2.3s2.57-.34,3.51-.22a8.83,8.83,0,0,1,3.37,1.26c.23.39,1.23,2.9,2.38,3.08s3.07,3.35,2.79,4-1.63.46-2.6,0a3.83,3.83,0,0,0-3.29-.27c-1.62.46-1.25-.63-1-1.65s-1.08-1.78-1.31-3-2.63-.32-3.41.67,1.58,1.48,1.61,3.54-1.19,0-2.17-1.29-2.11-.63-3,.11-.68,1.45-.66,2.65,2.1,1.16,2.4,1.67.87,0,1.84-.41,2,.7,2.37,1.34.11,1.32,0,2.06.72,1.48,1.08,1.78,1.3.43,2.42-.59-.21-1.78-.42-2.7.89-.54,2.14-.77,4,0,5.07.92,2,1.9,3.29,2,2.39-.06,3.47.86-.15,1.47.08,3.59,1.87,1.65,3.14,1.74,1.13,2.44.86,4-.53,1.71-1.6,1.66-1.68.67-2.26,1.71,1,1.12,2.52.73,1.13,1.58.24,2.12-1.5-.48-3.21-.15-1.76-.32-2.3-1.21-.25-.71-1-2,1.14-2.43,2.94-2.31,1.06-2.55.86-3.46-1.31-1.3-2.37-.48-1.4,1.71-2.32,1.06.05-1.94.3-3-3.24-2.2-4-3.14-2-.71-3.12.85,1.25,1.5,2.35,1.87a4.31,4.31,0,0,1,2.37,1.35c.66.81-.33,1.75-1.34,3.23s-.71,2,.24,3,2.3,2.95,1.95,4.38-2,.69-3.41.67-1.64-2.13-2.56-3.66-1.58-1.47-3.11-2.28-.49-2,.37-2.83,1.19-.89,1.44-1.91-1.35-1.09-2.44-.6-1.51.38-2.63-.33-.11-2.19.12-3.54-2-1-3.52-1.51-1,1.27-.3,3-.2,1.68-2.21,2.38-2.5-1.26-3-2a5.47,5.47,0,0,1,0-3.66c.38-1.1.64-.39,2.75-1.49s.27-1.56-.8-2.47-1.3.44-2.82,1.36-1.84-.45-2.1-2-1.48-1-2.63-1.19-1.19.9-2.28,2.25,1.35,1.09,2.27.89,2,1.36,2.63,2.05-.23,1.35-1.83,2.14-1.86-.78-3.08-1.08-2.66-2.38-3.07-3.35.58-1.91,1.39-3.44-1.18-1.37-1.94-1.78-1.17.36-2.29,1.38.49,1.1.82,2.8-1,.62-3.05.12-1.23-.31-2.47-.07-.86,1.73-.5,2.9,1.41,1.76,3,1.83,3.18-.19,3.74.16-.14,1.48-.24,2.75,1.43,1.22,2.8.91a12.3,12.3,0,0,1,4.21.06c1.14.17,1.32.76,1.4,1.75A5.64,5.64,0,0,1,435,281c-.2.82,1.36,1.09,2.93.83s2-1,3.16-1.39,1.91,1.45,2.45,2.34a2.2,2.2,0,0,1,.39,2.36c-.38,1.1-1.24,2-1.31,2.71s1.27,1,3.26.8.58-1.91,1.56-3.72,2.47-.8,3.39-.14a33.07,33.07,0,0,1,3.86,4.95c.31.51-1.64,2.73-3.37,3.6s-2.16.44-2.91-.5-2.75-.24-4.25.15-2.27-.89-3.21-1.88-.6-2.41,0-4-1.74-1.73-2.28-2.62-2.19.11-3.87.78.39,1.5,1.92,2.31.13,1.65-1,2.88-2.25-.55-3-1.29-1.51-3.07-2.05-4-.39-1.5,1.77-2.81,0-2.6-.06-3.26-1.71-.53-2.7.42-.3,2.09-1.74,3.14-1.76-1.2-1.41-2.62-1.26-2.37-2.61-2.59-.88,2.27-1.31,3.57.44,2.16,1.74,2.59,2.27,1.75,1.41,1.75-2.14,1.64-2.21,2.38,1.66,1.6,2.6.86,1.71-.34,3.13,0,1,2,.45,3-1.91,1.15-3.67,1.69-2-1.9-2.78-3.17-1.79-2.39-2.25-3.15a4.65,4.65,0,0,1-.07-3.26A13.38,13.38,0,0,0,421,280c-.08-1-1.45-.68-2.91-1.37s-1-.78-.16-2.85-.46-1.63-1.23-2-.56.51-1.45,1.05-.68,2.32-.24,3.62a4.45,4.45,0,0,0,3.09,2.81c1.79.66,1.39,2.29.22,3.52s-2.65-.66-4.26-2.46-2.09-.3-3.24.39-.4,1.63.12,3.06,2.27,1.75,3.09,2.81,3.62,1.11,4,1.42,2.3,2.08.56,2.08a5.91,5.91,0,0,1-3.74-1c-.92-.66-.57-.35-1.71.34s-.86.87-1.14,1.56.77,1.27,1.48,1.88,2.42.27,4.16.26a8.48,8.48,0,0,1,3.87,1c1.17.5,1.25.63,1.13,1.57s-.76,1.33-2.19,1.84-2.21-.22-3.46-.85-2-.38-3.08.65,1,2.85,1.54,3.4a4.27,4.27,0,0,0,4.13.8c1.88-.61,3-.57,3.13,0s-1.87,3.21-1.74,4,2.82-1.36,4.16-2.86,0-2.07-.31-3.11,2-1.56,2.87-1.56.87,1.72,1.23,2.89,1.94.05,3.38-1.87-.46-1.62-.39-2.36,1.86-.95,2.9-1.24,1.2,1.71,1.84,3,1.84.46,2.44-1.13-1.15-1.9-.72-3.2,2.24-.32,3.62.24,1.05,1.45,1.54,3.41-.53.84-2.9,2.1.08,1,1.21,2.56-.89,2.27-1.93,3.42,2.43,2,3.4,2.46,2-3,.93-3.34.91-2.8,2-2.43,2.5,1.27,3.57,1.32.63-3,0-3.47a3.58,3.58,0,0,0-2.8-.9c-1.73,0-.7-2,0-3.47s2-1,3.48-1.41,1.66.73,2.07,1.7-.35,1.43.06,2.39,1,1.12,1.51,2.21-1,1.48-1.83,3-.4,1.64.78,3-2.11,2-2.92,1.76-2.5-.39-3.11-.54-.94,1.6-.63,3-1.14.69-2.47.8-2-1-3.77-1.37-2.35-1-3.83-2-1.08-2.65.17-3.74.27-2.43-.88-3.47-2.09.57-3,2.18.59,3.28-1.08,4-2-2.44-3.35-2.66-2.21,1.51-2.21,2.38.9,2.92,2.64,2.92,3.56.44,3.54,1.84c0,1.05-1.19.9-.6,1.58s.79.74-.12,1.81-1.94.82-3.67.83-1.47.72-2,1.89,1.28,1.83,2,2.77,3.67-1.69,4.71-2.84,2.39.8,2.06,1.7,1,1.65,1.69,1.92,2.29-1.38,2.49-2.19-1.94-2.65-2.71-3.05.53-1.71,1.11-1.89,3.7.37,4.69.29.06,1.53.11,2.19-1.25,3.08-1.5,4.38a35.44,35.44,0,0,0-4.88,3.09l-.37-.26c-1-.79-2.74,1.48-3.45,2.6-.25.39-.09.68.26.89-13.91,15.35,5.4,36.25-15.93,51.23-11.83,8.31-25.18,5.44-37.2-.7-9.54-4.87-21.95-13.72-32.72-6.35-11.4,7.81-12.35,24.48-25.87,30.35-20.33,8.82-55.19-3.6-59.86-8.82,0,0,9.18-5,16.79-7.12s23.28-19.89,24.08-27.14,1.25-13.85-4.34-9.67-1.44,6.9-8.16,14.46-11.87,9.66-16.59,9.66-10,2.93-14.89,5.62-6.94.4,1.15-5.64,20.09-7.1,21.66-12.57-5.46-6.08-11.33-2.9-16.22,9.22-19.3,13.8-4.29-2.09-1.67-9.7,15.4-20.84,25-28.46,4-10.4-4.77-5.32-21.77,9.09-23.7,18.7-1.67,19.43-4.57,23.78-14.19,6.58-18.65,4.92-23.92-17.79-14.95-23.09,16.57,1.82,18.31-4.07-2-11.72-9.91-7.75-15.55,7.52-17.64,14.06-6.41-26.3,14.49-35.94,28.38-20.13,20-21.86-16.57,2.89-22.84,8.57-20.19,24.75-22.32,33.14c0,0-2.23-20.73,10.45-30.46s5.17-8.86.39-7.21-19.42,10.12-22.55,37.47c0,0-20.41-1.08-25.62-9s12.29-7.24,17.74-17.56,2-16.59-10.26-7.1-19.84,14.67-21.84,10.53,7.63-29.8-7.7-38.5,7.19-14,18.83-21.55,12.9-26-8.39-9.11-30.67,17.46-36.84,14.93,3.11-8.89,19-16.65,15.32-14.68,8.14-12.41-12.9,7.29-19.9,11.59c-2.32,1.43-6.08,1.34-9.26.33a80.88,80.88,0,0,0,.65-11.1c1.06-.44,2.27-.88,3.65-1.3,22.16-6.87,19.62-17.11,13.68-14.74-3.31,1.31-10.66,5.77-18.07,7.67a37.59,37.59,0,0,0-1.45-5.87c-13.75-40.35,22-62.08-18.34-93.7C44.08,99.9,52.66,97.07,53.78,58.87S41.94,29.58,0,0V492.44H768ZM445.23,321c.43-.67.92-1.37,1.4-2.05,1.16-1.64,2.54-.5,3.52.25C448.52,319.67,446.88,320.29,445.23,321Zm8.31-2.72c-1-.16-.78-3.63-.52-5.1s2.14-.78,2.45-.27a35.63,35.63,0,0,0,3.29,4.43A49.45,49.45,0,0,0,453.54,318.25Zm8-9.06c.48,1.18,1.94.91,3.87,1s.27,3.31-.26,4.15.1,1.32.59,1.55c.25.12.2.53,0,1-1.67,0-3.35.05-5.05.21a6.14,6.14,0,0,0,.64-1.85,3.75,3.75,0,0,0-1-3.38c-.56-.35-2.07-2.56-3.55-2.71s-1.28-1.83-1-2.52,1.55-.59,3.33-1.67-.7-2-1.67-2.46-.95-2.72-.87-3.46,1.29-.44,2-.49a3.39,3.39,0,0,1,2.32,1.54c.18.59.42,2.7.75,3.54s2,.71,3.08-.65.3-2.09-.65-3.08a19.27,19.27,0,0,0-3.42-2.79c-.77-.4.5-1.17,1.57-2s2.5.4,3,1,.92,2.39,1.59,3.2,2.39-.92,2.39-1.79.3-1.22,1.08-2.22,2.45.6,4.08,1,2.43,2,2.89,3.63-1.11,1.89-3.17,2.79-2.12-.63-3-1.83-2.17-.42-3.13.85.62,1.89,2.78,2.31-.93,2.47-3.81,3.17-3.26-.8-5-1.66S460.82,307.39,461.57,309.19Zm7.27,7.74a1.76,1.76,0,0,1,1.85-.41,1.51,1.51,0,0,1,.6.59C470.48,317,469.66,317,468.84,316.93Zm22.54,2.52c-.56,1.18-1.07,2.22-.85,2.61a81.4,81.4,0,0,0-7.75-2.7c-.3-.67-1.09-1.28-1.58-2.09-.69-1.15-2.54-1.06-3.74-1s-2.5-1.26-1.69-1.93,2.11-.23,3.46-.87-.34-1.71-1.08-2.65-3,.44-4.86,1.72-3.44-.52-3.54-1.84.93-2.48,2.63-3.68,2.94.83,3.8,1.69,2.43,1.14,4.48-.62-1.43-2.09-1.84-3.05.22-1.35.91-.56,2.66,1,4,.9,2.56,2.79,3,3.55a4,4,0,0,1,.37,2.9,6.84,6.84,0,0,0-.43,3.91c.41,1.83,2,.7,3.17.34S492.06,318,491.38,319.45Z" fill="#fff"/>
</svg>
