<svg xmlns="http://www.w3.org/2000/svg" viewBox="0 0 768 526.74">
  <path d="M0,104.57c16.65,29.64,34.21,55.63,48.78,65.33,25.11,16.72,73.05,9.24,107,.73,22.39,8.74,45.27,13.78,60,6.7,37.67-18.06,48.73-11.7,90.1-40.18S373.64,97.77,411,94.45c19.05-1.7,24.53-7.54,28.52-18.74h0s.79-.85,2.22-2.22a5.43,5.43,0,0,0,1-.31,16.81,16.81,0,0,0,2.46-1.26c.22.15.79.09,1.66-.35,3.43-1.72,6.77-1.3,10.28-.84a13.33,13.33,0,0,1-9.32,3.88c-1.83,0-1.83.82-.23.9a15.1,15.1,0,0,0,10.88-4.6,25.81,25.81,0,0,0,6,.18A31.44,31.44,0,0,0,456.38,79c-.2,0-.42,0-.69.08a18.94,18.94,0,0,0-7.77,3.79c-.21-.12-.46.09-.66.51-4,3.15-7.68,7.66-9,12.37-.79,2.75.62,3.24,1.66.13a24.37,24.37,0,0,1,6.95-9.81A23.24,23.24,0,0,1,443.38,100c-8,1.09-15.92,9.16-17.77,16.64-.64,2.58.69,3,1.55.06a22.34,22.34,0,0,1,14.63-14.61c-.27.31-.55.6-.83.88-3.64,3.53-9.45,9.89-10.15,16.18-.29,2.62,1.09,2.85,1.53-.13,1.87-12.67,17.57-14.74,16.06-34.22a24.92,24.92,0,0,1,6.29-3.46l.3-.12a19.57,19.57,0,0,0-1.89,4.67c-.55,2.24.27,3,1.1,1.5-.21,6.59-2.95,12-6.41,15.21C444,106,438,112.21,437.12,118.47c-.37,2.61,1,2.88,1.53-.09.94-5.17,4.15-8.48,7.55-11.93a18.24,18.24,0,0,1-3.45,13.39c-1.53,2-.62,2.69.8,1,3.2-3.8,4.84-10.25,3.93-15.71,4.56-4.7,9-10.1,8.31-21a4.67,4.67,0,0,0-.06-.6A26.2,26.2,0,0,1,469,70.9a7.06,7.06,0,0,0,2.29-1.44c-3.91,13.65-13.82,21.21-14.58,24.11-1.87,7.19-.38,13.82-5.82,20.3-1.94,2.31-.94,3.16.88,1.26,5.78-6.09,5.66-15.77,5.83-18.2,0-.39.08-.79.13-1.19A22.35,22.35,0,0,1,456,116.35c-1.68,2.54-.41,3.37,1,1.14,8.46-13,.8-23.36,1.93-24.42a56.81,56.81,0,0,0,12.47-18.3c.35,0,.75-.74.91-2.2a3.64,3.64,0,0,1,.07-.44,20.07,20.07,0,0,0,.76-3.16,24.65,24.65,0,0,1,2.91-5.81c.48,2.8.88,4.76,1,5.3a11.8,11.8,0,0,0,.46,1.53c.39,6.77-1.35,14.53-4.16,18-3.25,4-8.36,11.21-8.37,17.66,0,2.68,1.39,2.74,1.51-.33a16.75,16.75,0,0,1,1.6-6.45,4.85,4.85,0,0,0,1.73-.5A20.37,20.37,0,0,1,473,97.26a19.41,19.41,0,0,1-.49,4.27,16.57,16.57,0,0,0-2.1,1.22c-2.15,1.5-1.46,2.63,1.12,1.06.13-.09.26-.15.4-.23a17,17,0,0,1-1.14,2.57,3.48,3.48,0,0,0-.56,1.64,17.63,17.63,0,0,0-6.7,2.24c-1.88,1.15-1.33,2.16.87.93a18.23,18.23,0,0,1,13.75-1.39c-3.93,2.84-7.68,5.52-12.93,5.67-3,.09-2.95,1.48-.31,1.51,6.31,0,13.31-5,17.25-8.18,3.64-3,9.45-4.84,16-4-1.56.6-1,1.51,1.32,1.3a19.33,19.33,0,0,0,4.89-1.17l-.16.29a25.43,25.43,0,0,1-4.36,5.7c-19-4.42-23.43,10.8-36.22,10.75-3,0-3,1.39-.37,1.49,6.32.26,13.48-4.54,17.52-7.61.31-.24.64-.46,1-.69a22.33,22.33,0,0,1-16.63,12.29c-3,.41-2.81,1.78-.17,1.54,7.67-.71,16.83-7.36,19.12-15.08A23.18,23.18,0,0,1,498.38,112a24.27,24.27,0,0,1-10.74,5.4c-3.23.58-2.95,2-.11,1.67a17.63,17.63,0,0,0,2.69-.61c.17.2.74.29,1.7.08,3.75-.81,6.88.43,10.16,1.76a13.29,13.29,0,0,1-10,1.42c-1.78-.49-2,.33-.46.81a15.09,15.09,0,0,0,11.69-1.73,25.58,25.58,0,0,0,5.81,1.69,31.07,31.07,0,0,0-9.8,5.66,5.41,5.41,0,0,0-.69-.1,19,19,0,0,0-8.48,1.72c-.17-.17-.46,0-.76.33-4.64,2.05-9.36,5.5-11.85,9.71-1.45,2.47-.22,3.29,1.58.55a24.27,24.27,0,0,1,9.18-7.76,23.24,23.24,0,0,1-6.84,12.63c-8-.94-17.7,4.88-21.36,11.66-1.27,2.34-.08,3.07,1.48.45a22.33,22.33,0,0,1,17.82-10.48c-.34.23-.68.44-1,.64-4.41,2.51-11.63,7.21-13.88,13.12-.93,2.46.34,3,1.52.26,5-11.8,20.7-9.87,24.12-29.11a24.46,24.46,0,0,1,7-1.77l.32,0a19.27,19.27,0,0,0-3,4c-1.1,2-.49,2.93.68,1.73-1.86,6.33-5.87,10.93-10,13.12-4.48,2.37-11.85,6.83-14.29,12.67-1,2.43.24,3,1.51.3,2.2-4.78,6.13-7.18,10.29-9.67a18.21,18.21,0,0,1-6.69,12.1c-2,1.55-1.27,2.45.52,1.17,4.05-2.87,7.26-8.71,7.74-14.22,5.59-3.41,11.22-7.54,13.3-18.24a5.88,5.88,0,0,0,.09-.6,26.22,26.22,0,0,1,16-8.91,7.26,7.26,0,0,0,2.57-.82C509,134.86,497.47,139.7,496,142.32c-3.61,6.49-3.83,13.28-10.72,18.19-2.45,1.75-1.69,2.83.54,1.44,7.13-4.45,9.42-13.85,10.2-16.16.12-.37.27-.75.43-1.12a22.35,22.35,0,0,1-6.85,19.52c-2.26,2-1.24,3.16.73,1.37,11.43-10.45,6.61-22.42,8-23.17A56.69,56.69,0,0,0,515,127.8c.35.06.91-.52,1.43-1.9.05-.13.12-.27.17-.41a19.17,19.17,0,0,0,1.54-2.87,24.2,24.2,0,0,1,4.27-4.89c-.24,2.82-.34,4.82-.35,5.37a13,13,0,0,0,.06,1.6c-1.32,6.66-4.94,13.73-8.54,16.41-4.15,3.1-10.9,8.76-12.52,15-.68,2.6.65,3,1.54.06,1.54-5.14,5.14-8.18,8.95-11.35a19.05,19.05,0,0,1-5,13.2c-1.78,1.87-.94,2.66.67,1.09,3.65-3.53,6-9.9,5.76-15.49,4.45-3.76,8.84-8.1,10.3-16.44.2,0,.39-.23.53-.57a22.54,22.54,0,0,1,1.78,10.55c-6.53,4.71-9.77,15.56-7.91,23,.64,2.58,2,2.32,1.4-.67a22.34,22.34,0,0,1,6.09-19.77c-.1.4-.21.79-.32,1.16-1.57,4.83-3.73,13.18-1.4,19.06,1,2.45,2.28,2,1.28-.83-2.87-8.13,2-14.94,2.37-23.56a17.8,17.8,0,0,1,1.23,3.67c.77,3.75,2.23,9.41,5,13.67a18.88,18.88,0,0,0-2.6,3.61c-1.26,2.34-.08,3.07,1.48.45a20.66,20.66,0,0,1,2-2.78,14.1,14.1,0,0,0,2.24,2.32,4.71,4.71,0,0,0,.53.37,14.29,14.29,0,0,0-1.88,3.38c-.94,2.46.33,3,1.51.25a16.76,16.76,0,0,1,5.11-6.58.29.29,0,0,0,.22-.19c4.2-3.37,9.53-5.61,13.55-10.41.62.69,1.12.22.86-1.1a25.28,25.28,0,0,0,4.38-10.83,25.15,25.15,0,0,1,7-1.77l.33,0a19.12,19.12,0,0,0-3,4c-1.1,2-.48,2.92.68,1.72-1.85,6.33-5.87,10.93-10,13.12-4.49,2.37-11.86,6.83-14.3,12.67-1,2.43.24,3,1.51.3,2.2-4.77,6.14-7.17,10.29-9.67a18.24,18.24,0,0,1-6.68,12.1c-2,1.55-1.28,2.45.52,1.18,4-2.88,7.25-8.72,7.73-14.23,5.59-3.41,11.22-7.54,13.31-18.24a3.69,3.69,0,0,0,.08-.6,26.33,26.33,0,0,1,15.05-8.74c0,1.36,0,2.72,0,4.08-6.93,8.56-15.37,12.4-16.6,14.62-3.62,6.49-3.84,13.28-10.73,18.19-2.45,1.75-1.69,2.83.54,1.44,7.13-4.45,9.43-13.85,10.2-16.15.13-.38.28-.75.43-1.13a22.33,22.33,0,0,1-6.85,19.52c-2.26,2-1.23,3.17.73,1.37,11.43-10.44,6.61-22.42,8-23.17a55.92,55.92,0,0,0,14.34-11.79c.08,3.64.26,7.25.52,10.8-4.17,3.15-10.57,8.66-12.15,14.71-.68,2.6.66,3,1.54.06,1.54-5.13,5.14-8.18,9-11.35a19,19,0,0,1-5,13.21c-1.78,1.87-.94,2.65.68,1.08,3.65-3.53,6-9.9,5.75-15.49l.38-.32c1.62,19.11,6.19,36.24,16.2,45.18,30.23,27,29.59,39.75,68.11,65.4,5.27,28.89,3.56,56.38,27.1,71.75h0a60.19,60.19,0,0,0,6,14.57c7,12,18,21.94,21.69,35.32,6.37,22.95-10.89,46-10.58,69.85.25,20.15,13,38,27,52.46,9.43,9.78,19.78,18.93,28.52,29.25V0H0Zm469-7.45a57.1,57.1,0,0,1,3.32-5,19.52,19.52,0,0,1,.6,3.62A27.26,27.26,0,0,0,469,97.12Zm10.26-25c.19-.08.32-.32.38-.68A22.49,22.49,0,0,1,484,81.18c-2.92,3.52-4.31,8.69-4.3,13.74a22.45,22.45,0,0,0-5.45.47,20.43,20.43,0,0,0-.83-4.8C476.81,85.83,480,80.54,479.3,72.09Zm5.34,23.55a24.83,24.83,0,0,0-3.38-.62,23.33,23.33,0,0,1,3-11.22c0,.41,0,.81,0,1.2A49.32,49.32,0,0,0,484.64,95.64Zm12.84.44a45.47,45.47,0,0,0-4.16,2.86c-.6.48-3.1-1.48-7.15-2.84-.89-5.29.22-10.9-1.07-16.82a17.29,17.29,0,0,1,2.11,3.25C489.18,86.54,492.72,92.85,497.48,96.08Zm-7.05-11a18.24,18.24,0,0,1,11.9,7,5.34,5.34,0,0,0,.78.86c-1.41.66-2.81,1.4-4.17,2.18C494.82,92.83,492.65,89.08,490.43,85.12Zm.07,14.63c-.41,0-.81,0-1.2,0l-2.23-.22c-.19-.52-.36-1-.5-1.57A25.42,25.42,0,0,1,490.5,99.75Zm-5-.37a34.73,34.73,0,0,0-3.85,0,24.08,24.08,0,0,1-.35-2.71,22.43,22.43,0,0,1,3.67.76C485.13,98.07,485.31,98.73,485.51,99.38Zm-5.38.08a23,23,0,0,0-6.17,1.43,23.38,23.38,0,0,0,.38-3.94,21.26,21.26,0,0,1,5.44-.43A25.93,25.93,0,0,0,480.13,99.46Zm-.46,9a21.07,21.07,0,0,0-8.35-.86,4.88,4.88,0,0,0,.43-.61,16.81,16.81,0,0,0,1.77-4.26,19.05,19.05,0,0,1,7-1.64,18.71,18.71,0,0,0,1.66,4.34,4.49,4.49,0,0,0,.65.93C481.71,107.07,480.68,107.78,479.67,108.5Zm4.15-2.7a6.8,6.8,0,0,0-.49-1.33,21.05,21.05,0,0,1-1.26-3.38c1.37,0,2.74,0,4.13.1a14.2,14.2,0,0,0,1.48,2.62,1,1,0,0,0,.13.16A25.54,25.54,0,0,0,483.82,105.8Zm18.42-2.22a4.82,4.82,0,0,0-.58-.15,25.31,25.31,0,0,0-12.45.1,8.38,8.38,0,0,0-.5-.85,15.61,15.61,0,0,1-.86-1.44,36.44,36.44,0,0,0,4.64-.15c1.28-.13,3.67-1.82,7.1-3.84,1.82.78,2.52.17,1.38-.79a48.11,48.11,0,0,1,17.52-6.17,7.33,7.33,0,0,0-1.77,2A26.21,26.21,0,0,1,502.24,103.58Zm20.33,11.87a28.86,28.86,0,0,0-4.49,4.55,16,16,0,0,1-13,.31c-2.88-1.36-7.59-3.27-11.7-3.06a30.88,30.88,0,0,0,7.71-5.27c.45-.14.69-.34.6-.57a19,19,0,0,0,4.92-7.12c.08-.27.13-.48.17-.68a31.23,31.23,0,0,0,9.06-6.8,25.33,25.33,0,0,0-.73,6,15.11,15.11,0,0,0-6.19,10.07c-.16,1.6.67,1.73.93-.1a13.31,13.31,0,0,1,5.22-8.63c-.06,3.54-.15,6.91-2.37,10-1.27,1.8-.43,2.37.74.84,2.8-3.66,2.95-10,2.82-13.67a16,16,0,0,1,5.38-11.82,29,29,0,0,0,6.67-2.74s0,0,0,0C525.08,94,523.36,107.06,522.57,115.45Zm8.2,27.13a18.42,18.42,0,0,1,7.65,6.06,25.55,25.55,0,0,0-4.08,3.23A31.06,31.06,0,0,1,530.77,142.58Zm7.07,13.24a8.2,8.2,0,0,0-.66-.65,15.47,15.47,0,0,1-1.94-2,21.78,21.78,0,0,1,4-3.21,16.89,16.89,0,0,1,1.25,2.47c.08.19.15.34.23.49A27,27,0,0,0,537.84,155.82ZM549,147.15a53.69,53.69,0,0,0-7.27,4.9,15.48,15.48,0,0,0-1.37-2.77,23.81,23.81,0,0,1,9.67-2.77C549.68,146.74,549.34,147,549,147.15Zm3.09-2.27c-.32,0-.65,0-1-.06,0-.19,0-.37,0-.59a17.51,17.51,0,0,0-1.22-4.38,18.75,18.75,0,0,1,2.51-3,21.39,21.39,0,0,1,2.3,4.81c0,.07.05.11.07.18A21,21,0,0,1,552.08,144.88Zm-.71-9.4a21.7,21.7,0,0,0-2.34,2.68c-2.72-5.11-7.18-8.66-8.49-9.88a9.74,9.74,0,0,1-.85-.85A22.94,22.94,0,0,1,551.37,135.48Zm-9.76-9a26.66,26.66,0,0,0,6-3.64,23,23,0,0,0,7,9.07,6.07,6.07,0,0,0,.74.46,31.78,31.78,0,0,0-2.79,2.1A23.94,23.94,0,0,0,541.61,126.43Zm14.13,13.95a25.16,25.16,0,0,0-2.24-4.53,27.51,27.51,0,0,1,5.41-3.6A24.4,24.4,0,0,1,555.74,140.38Zm-4.47-24.21-.09.14c0-.1-.09-.2-.14-.29ZM558.86,128c2.32,1.25,3,.06.45-1.47-3.54-2.09-5.53-5.08-7.23-8.38.24-.34.48-.67.7-1a40.6,40.6,0,0,0,10.45,4.37l-.54-.12c-1.77-.48-2,.33-.45.82a13.41,13.41,0,0,0,5.93.33,54.7,54.7,0,0,0,9.24.56,31.43,31.43,0,0,0-7.48,4.72c-.2,0-.42-.08-.69-.1a18.85,18.85,0,0,0-8.47,1.73c-.18-.18-.47,0-.77.32a31.82,31.82,0,0,0-3.6,1.89,5.53,5.53,0,0,0-1.17-1.19,21.74,21.74,0,0,1-6.41-8.7,25.16,25.16,0,0,0,2.22-2.29C553,122.88,555.64,126.23,558.86,128Zm-8.73-10.16a22.57,22.57,0,0,1-1.91,2.25,22.09,22.09,0,0,1-.63-2.46c.64-.42,1.24-.83,1.81-1.23C549.63,116.85,549.88,117.33,550.13,117.82Zm-1.8-3.78c.12.28.24.56.38.85l-1.4.94a24.84,24.84,0,0,1-.18-2.79C547.52,113.38,547.92,113.71,548.33,114ZM547,121.26a22.12,22.12,0,0,1-7.44,4.35c-.7-.29-1.13-.54-1.15-.81-.07-.91-.17-1.83-.31-2.75a30.14,30.14,0,0,0,8-3.51A26.12,26.12,0,0,0,547,121.26Zm-9.14-.62c-.26-1.44-.57-2.88-1-4.31a22.67,22.67,0,0,0,8.5-3,21.44,21.44,0,0,0,.35,3.54A24.43,24.43,0,0,1,537.82,120.64Zm7.62-9.13v0a18.37,18.37,0,0,1-9,3.3c-.42-1.44-.9-2.86-1.41-4.23a17.83,17.83,0,0,1,7.55-2.1Q544,110.07,545.44,111.51ZM532.52,91.32a69.14,69.14,0,0,0,4,8.51,35.3,35.3,0,0,0-3.45-1.25,4.27,4.27,0,0,0-.92-.18C532.19,95.85,532.29,93.41,532.52,91.32Zm1.56,9.33a24.38,24.38,0,0,1,4,1.73,50,50,0,0,0,3.55,5,18.38,18.38,0,0,0-7,2.12,54.86,54.86,0,0,0-2.34-5.13c0-1.56-.09-3.16-.09-4.74A5.89,5.89,0,0,0,534.08,100.65Zm-3.39-14.44c.23.73.48,1.45.73,2.17-2,8.87-.19,26,.05,27.52.61,4,2.25,3.51,1.75,1-.18-.86-.48-3.82-.72-7.62.2.49.38,1,.55,1.44a.27.27,0,0,0,.11.32c.49,1.38.9,2.73,1.25,4-1.2.35-1,1,.33,1.24.42,1.68.75,3.24,1,4.63a15.16,15.16,0,0,1-1.52.08c-3,0-3,1.38-.37,1.49a14.54,14.54,0,0,0,2.18-.11,22.46,22.46,0,0,0,1,3.86c-.46.09-.9.17-1.3.23-3,.41-2.81,1.78-.16,1.54a17.2,17.2,0,0,0,2.38-.41c3.44,4.3,7.66,7.14,10.07,12-1,1.79-.44,2.58.68,1.55a19.25,19.25,0,0,1,.82,2.89,5.13,5.13,0,0,0,.18.68A22.61,22.61,0,0,0,539.48,148a21.4,21.4,0,0,0-9.19-7.19,33.16,33.16,0,0,0-3.32-8.47,24,24,0,0,0-2.9-8.94c.1-2.23.44-6.34,1-11.09a26.12,26.12,0,0,1,5.78,18.75c-.25,2.58.65,5,1.61,1.89,1.66-5.38-1-17-7.13-22.74,1-8.37,2.71-18.06,4.92-22.87A11.54,11.54,0,0,0,530.69,86.21ZM482.12,52.67c1.13,3.4,2.08,5.91,2.31,6.45,1.6,3.73,3.06,2.83,2,.58-.38-.77-1.38-3.47-2.52-7H484c5.22,7.22,7.21,14.15,8.92,15.53,5.79,4.67,12.44,6,16.12,13.66,1.31,2.72,2.5,2.16,1.5-.28-3.18-7.79-12.05-11.65-14.19-12.8-.35-.19-.69-.4-1-.62a22.37,22.37,0,0,1,18.07,10.07c1.63,2.58,2.9,1.75,1.47-.49-8.37-13-21-10.32-21.48-11.8a53.32,53.32,0,0,0-6.84-13,25.06,25.06,0,0,1,10.11,3.93c1,.67,2.08,1.33,3.17,2,2.71,4.45,6.83,8.22,11,9.87,2.47,1,3.05-.29.26-1.53a21.78,21.78,0,0,1-8.26-6.66,87,87,0,0,0,23.82,8.22,116,116,0,0,0,3.32,15,14.37,14.37,0,0,0-1.4,2.48c-.45-.26-.9-.51-1.38-.76a24.27,24.27,0,0,1-7.92,2.92,20.16,20.16,0,0,0-3.24.28h-.44c-1.47-.07-2.22.22-2.31.56A57,57,0,0,0,504,92.64a3.4,3.4,0,0,0-.48-1c-2.75-4.13-8.49-7.51-14-8.16a33.42,33.42,0,0,0-5.34-7.36,24.05,24.05,0,0,0-5-7.93c-.46-2.19-1.17-6.25-1.82-11A26.14,26.14,0,0,1,487.62,74c.4,2.56,1.89,4.69,2,1.43.25-5.63-5.22-16.17-12.61-20.23-.08-.66-.17-1.33-.25-2A31.79,31.79,0,0,1,482.12,52.67ZM453.44,63.82a83.74,83.74,0,0,1,8.42-5.24,11.91,11.91,0,0,0,0,3.27c.25,1.59,1.08,1.51.87-.32a13.25,13.25,0,0,1,.13-3.48c1.19-.61,2.4-1.19,3.63-1.72a12.24,12.24,0,0,1-.64,5.84c-.78,2.06.17,2.41.92.64a14.7,14.7,0,0,0,.75-6.92,45.6,45.6,0,0,1,7.13-2.31c.33,2.64.7,5.15,1,7.32a28.69,28.69,0,0,0-3.21,5.54A16,16,0,0,1,460,70c-3.13-.58-8.17-1.26-12.09,0A30.56,30.56,0,0,0,453.44,63.82Z" fill="#fff"/>
</svg>
