<svg xmlns="http://www.w3.org/2000/svg" viewBox="0 0 768 725.98"><path d="M700.23,272.19c-11.14,11.64-16.82,28.68-13.62,44.55,2.12,10.48,7.27,22.57.5,30.85-2.48,3-6.14,4.8-9.14,7.32-9.54,8-11.09,22.65-6.9,34.36s13,21.13,21.71,30l0,0a5.82,5.82,0,0,1-.12,2.78c-1.61,3.67-7.57,25.69-7.57,25.69l-1.37,7.57-6.2-11V434.24l-6.65-.46-3.67,2.75V451l7.8,6-7.8,2.75L659,454.88s7.57-11,5-9.86-3-2.07-2.75-4.59,1.15-12.15-.46-10.55-10.32-1.83-9.17.69,6,6,6.42,10.09,0,10.55-2.29,7.8-.9-10.55-4.23-11.93-7.7-14.45-8.16-9.63-6.88,4.59-4.81,7.57-.08,7.34,1.57,7.56,5.77-2.52,8.29,2.53,8.94,12.61,4.36,10.55-5.51-7.11-6.88-7.8-7.24-.46-7.75-3.44-.51-7.8-2.57-8-1.38-13.76-3.21-12.84,1.37,14.91-1.38,14-9.17-10.78-11.92-8.94-8.26,7.79-3.21,8.25,12.84,4.13,12.38,7.57-2.52-.46-4.36,2.75-3,10.09-3.67,6.42-2.52-14.67-3.9-13.76.46,9.63-.91,7.57-4.59-9.4-5.74-7.34-5-3.44-6.42.92-7.11,4.36-5.27,7.11-8,1.6-6.19,4.13-8.72,4.81-6.2,6.19-7.1,3.9-3.89,6.42-9.64,12.38-3.21,10.32-6,4.81.45,5.27,4.13,3.9,2.76,8-5.05,8.26,0,6.65,5.27-4.13,7.1-.23,5.51,5.51,6.2,4.82,1.14-.23.23,2.52-3.9,2.75,2.29,3.21,7.34,5.05,6.42,7.8-5,7.11-2.29,7.11,14.9-4.82,14.9-1.38.92,5.05,2.53,5.5,3.44,6,3.44,6l3.89,2.52,6-4.59.68,10.78-6.65-.92-7.33-4.12-5.51-5.74s-7.34-1.6-7.57.92,5.74,6.88,5.74,6.88l-3.44,6.65h6.19l5,6,5.74,1.15L623,552.8l1.38,4.13s7.57,5,8.26,5.73,4.35,3.67,4.35,3.67l3.18,4.59a70.76,70.76,0,0,1,6.23,3.44,16.52,16.52,0,0,0,4.81,1.83l4.82,2.06s3.9,2.3,5.5,2.3,3.67-.46,4.59,0,7.34,3.9,7.34,3.9S675.49,589,676,590s-1.38,4.36-3.44,7.57a16.67,16.67,0,0,0-2.29,7.11l-.69,5-3.21,8.49,2.52,2.75,1.38,6.42,9.4-2.29-.23-3,4.13-.23-.23,5.5,4.58,3.9,2.76,3.9-13.31,1.37-6.42-4.81-9.63-1.84-3.21.69-4.13,3.21-2.52-1.6-8.48,2.75-2.79,5-2.95,7.11-4.58,4.13s-8.26-9.17-10.32-7.57-6.42-1.14-7.34.69-8,.23-8,3-3.44,2.3-7.34,5.28-6.65.68-9.63,2.52-6.42,2.75-5.27-2.75,2.75-10.32.91-11.7-2.29-11.92-4.81-10.78,2.77,3.9-4.12,4.59-2.53-7.57-5.28-8.49-2.76-7.33-5.51-7.33-6.42-4.59-9.86-.23-5.27.91-4.13-.92.46-9.4,2.53-7.57,4.12,1.15,8.71-.46a8.81,8.81,0,0,0,5.73-7.79c0-1.61-7.79,0-6-4.36s6-2.29,6-6.42-.46-10.32-3-10.09-6.42-3.44-6.42-3.44-8-4.13-9.4-3.44-7.11-2.53-7.11-2.53-6.88-3.44-7.34,1.38-4.36,8-6.42,11.7-9.86-.46-7.8,3.44,6.88,3.44,1.84,7.11-6.88,3.66-6,7.1,2.29,6.88-2.07,8.95-17.43,9.4-11.24,3.67,7.8-2.75,8.26-7.34-1.83-6.19.92-9.4a10.07,10.07,0,0,0,2.52-6.65s0-9.18-1.15-9.18-4.58-3.9-6.42-3.21-6.19-6-8.71-4.35-6.19-1.38-7.8.91-10.55.23-12.15,2.75-5.78,10.68-13.08,10.68-9.75-7-15-4.87-22.28-.7-26.11,1.39S410,590,410,590l-45.16,4.88s-3.14-13.58-8.36-11.49-11.83-4.18-13.92,0-7,10.1-7,12.18-16-6.61-16-6.61-9.75-2.78-12.88-2.44-19.49,1.74-21.23,4.88-.35,8,.69,8,11.14-.69,14.27-.35a6.15,6.15,0,0,1,5.22,6.62c-.34,3.13,3.14,3.83,3.14,8a65.94,65.94,0,0,0,.34,8.36c.35,3.83-.34,6.26-4.87,8.7s-3.48,6.61-2.43,8,4.87,3.83,3.82,6.62-1.74,4.17-4.17,4.52-3.14-10.44-7.31-7.31-15,2.44-15.67,3.48,0,2.09-1.39,4.88-1.39,3.48-5.22,3.48c-3.07,0-5-3.58-7.11-4.46-5.77-17.44-23.45-.94-41.5-4-19.46-3.31-35.61-30-35.61-30-19.73-14.3-27-23.35-23.17-30s12.31-4.88,25.16-12.67,4.71-21.9-.9-11.58-25,17.19-21.18,11.94c.08-.12.17-.23.26-.35,3.64-4.86,5.89-4.26,13.67-15.58,8-11.58.19-15.56-4.16-7.78a59.44,59.44,0,0,1-10.5,13.4c6-8.33.36-13.58,5.79-27.34s16.3-7.06,16.11-21.72-14.11,5.07-21.9,14.48-6.15,28.24-6.15,28.24c-10-7.06-.36-24.8,1.26-30.23s-7.6-6.88-11.94,13.22-14.3,3.07-11-3.44,7.24-11.95,8.68-18.47-4.7-6.51-10.31,8.15-10.5,23.35-13.22,18.1-2.89-13.58,10.32-33.67-2.9-17.56-8.69-6.7S117,535,108.16,522.13s-30.77-2.36-34.57-3.81.18-8.5,7.6-20.09,1.63-14.12-7.06-8.51-6.7,21-14.12,17-9.95-21.9-9.95-21.9C74,480,80.29,466.37,81.37,462s1.27-11-6.33.9S49,474.52,49,474.52c7.24-2.53,23-16.29,27.52-22.27s8-13.57,5.79-20.81-10.86.18-17.74,19.37C61.89,458.2,55.9,462.55,49.87,465c15.71-26.77,18.71-46,17.22-64.83l1.41.71a1.31,1.31,0,0,1,.72.95c2.18,11.63,7.28,6.72,6,4.27l0,0a1.55,1.55,0,0,1,1.68-2.2c7.49,1.43,5.25-3.88,3.12-3.95a20.28,20.28,0,0,1-6.43-1.45,1.53,1.53,0,0,1-.11-2.82c5.63-2.61,1.39-6.14-.89-4.5a10.53,10.53,0,0,1-6.26,2c-.38-2.9-.84-5.81-1.36-8.76a1.76,1.76,0,0,0-.4-2.18c-.35-1.94-.73-3.89-1.11-5.87,1.39-1,2.7-2,3.89-3a10.49,10.49,0,0,1,8.47-2.19,85.07,85.07,0,0,0,11.76,1,.84.84,0,0,1,.77.58A9.3,9.3,0,0,0,92,377.48c2.26,1.58,4.5-2.1,2.25-3.67h0a.78.78,0,0,1,.52-1.39l.23,0c2.77.16,2.91-4.12.16-4.29-1.58-.09-3.2-.15-4.83-.2a.85.85,0,0,1-.51-1.5h0c2.15-1.77-.79-4.86-2.92-3.11A27.57,27.57,0,0,0,83,367.25a.89.89,0,0,1-.74.33l-1.77-.16a3.56,3.56,0,0,1-2.67-5.4,22.72,22.72,0,0,0,1.76-3.53,2.86,2.86,0,0,1,2.53-1.81c3.59-.17,10.67,2.09,24,5.75a3.12,3.12,0,0,1,1.73,1.2,30.38,30.38,0,0,1,3.32,5.87c.84,1.92,3.72.36,2.89-1.54a1.42,1.42,0,0,1-.08-.18,3.19,3.19,0,0,1,2.3-4.45c1.4-.27,2.8-.66,4.19-1.07,0,0,6-2,9.91-1.9,3.15.12,3.32-4.76.17-4.88h-.65c-2.42,0-3.57-1.74-2.5-3.92,1.28-2.65,2.87-5,5.56-6.3,2.51-1.21.51-5-2-3.78-6.27,3-6.92,9.45-10,14.69a3.32,3.32,0,0,1-2,1.51,20.4,20.4,0,0,1-6.28.72,1.9,1.9,0,0,1-1.11-3.35c2.33-2,4.41-4.34,7.58-5.43,2-.67,1.28-3.84-.71-3.16-3.07,1.05-5.33,2.91-7.73,5.08-4.1,3.72-5.76,3.81-7.57,4.39a3.12,3.12,0,0,1-1.79,0l-2.13-.55a3.13,3.13,0,0,1-2-4.54c.2-.37.38-.75.55-1.13a5.12,5.12,0,0,1,3.79-2.7,11.29,11.29,0,0,0,7.45-4c1.38-1.57-.82-3.94-2.21-2.36a13.69,13.69,0,0,1-1,1c-2.65,2.37-6.31-1.5-3.77-4a12.43,12.43,0,0,1,5-2.89c2-.64,1.29-3.81-.72-3.17-13.88,4.47-8.39,15-14.45,20.73a3.16,3.16,0,0,1-2.8.78c-2.11-.41-3.61-.69-4.74-.87a4.57,4.57,0,0,1-3.8-3.88c-.18-1.25-.43-2.44-.67-3.59a2,2,0,0,1,2-2.38,4.87,4.87,0,0,0,.54,0c3.66-.06,7.53-1.45,9.74-2.18a2.31,2.31,0,0,0,.6-4.06,1.93,1.93,0,0,1-.62-2.86,13.5,13.5,0,0,1,2-2c2.17-1.74-.77-4.83-2.92-3.11a15.55,15.55,0,0,0-5,7.32,3.74,3.74,0,0,1-3.13,2.59c-.56.06-1,.08-1.42.09a1.9,1.9,0,0,1-1.82-2.61c2.54-6.13,11.32-9.35,17.24-12,2-.51,4.28-.07,6.28-.22a42.74,42.74,0,0,1,7.17-.21,5.06,5.06,0,0,1,4,2.59c2,3.59,2.5,7.24,6.35,9,2.47,1.13,4.75-2.52,2.25-3.67-2.3-1.06-3.33-3.46-4.36-5.87a.69.69,0,0,1,.55-1h0a.68.68,0,0,1,.48.12,38.31,38.31,0,0,0,10.67,5.16c2.64.81,3.88-3.3,1.24-4.11-1-.3-1.9-.63-2.81-1a1.46,1.46,0,0,1,1-2.73,3.61,3.61,0,0,1,.42.16c2.52,1.08,3.73-3,1.23-4.12-7.66-3.31-6.63,3.81-19.91,1.12-.36-.07-.71-.13-1.06-.17a1.84,1.84,0,0,1-1.14-3.08,29.35,29.35,0,0,0,4.15-5.74,3.3,3.3,0,0,1,3.33-1.65,26.11,26.11,0,0,0,7.62-.08c2.09-.29,1.35-3.45-.71-3.16h0a.61.61,0,0,1-.49-1.06l1.07-1a1.62,1.62,0,0,0-2.22-2.36c-.3.29-3.42,3.16-4.34,4.15a.77.77,0,0,1-.67.25h0a.78.78,0,0,1-.59-1.1c2.94-6.15,5.22-9.14,11.5-11.35h0a10.92,10.92,0,0,1,7.57.67c3.06,1.47,7.22,3.23,8.53,3.74,2.56,1,3.78-3.12,1.23-4.12l-.74-.29a3,3,0,0,1-1-4.89,1.25,1.25,0,0,0,.37-1.18c-.4-1.66-1.42-1.4-7.44,0a1.35,1.35,0,0,1-1.41-2.11l.37-.53c1.69-2.37-2.38-4.58-3.64-2-.15.3-7,11.4-7.72,5.71a12.48,12.48,0,0,0-.24-1.36,3.41,3.41,0,0,1,.87-3.14,13.92,13.92,0,0,0,3.64-6.95c.53-2.69-3.56-3.91-4.1-1.19V275a3.23,3.23,0,0,1-5.76,1.27,22.48,22.48,0,0,1-2.11-3.33,5.78,5.78,0,0,1,5-8.27h.06c2.58-.08,3.92-5.14-1.94-4.17a5.88,5.88,0,0,1-4.15-.95,2.15,2.15,0,0,0-3.3,1.1,22.83,22.83,0,0,0-1.3,7.2,1.55,1.55,0,0,1-3,.49,8.65,8.65,0,0,1-.22-1c-.45-2.73-4.63-1.72-4.19,1,1.24,7.58,7.56,8.64,11.08,10.22a2.4,2.4,0,0,1,.93.77c6.71,9.28,4.26,9.66,4,13.28-5.75,4.46-7.22,10.87-11.23,16.51a2.49,2.49,0,0,1-4.38-.57q-.24-.64-.45-1.29a2.53,2.53,0,0,1,.24-2.11,91.17,91.17,0,0,1,5.33-7.81c1.68-2.21-2-4.4-3.65-2.21-.61.8-1.2,1.6-1.78,2.42a1.16,1.16,0,0,1-2.12-.57c-.17-2.35-.16-4.26-.52-6.65a9.35,9.35,0,0,1,.5-4.68c1.21-3.17,2.56-6.64-.08-12.26-1.17-2.5-5-.46-3.8,2a10.6,10.6,0,0,1,.89,3.11,1.17,1.17,0,0,1-2.08.9l0-.05c-1.72-2.16-4.84.81-3.14,3a16.38,16.38,0,0,1,3.25,7.14,1.19,1.19,0,0,1-1.57,1.34,12,12,0,0,0-5.56-.64c-2.75.31-1.78,4.47.94,4.17a6.17,6.17,0,0,1,5,1.48,6.7,6.7,0,0,1,2.24,4.4,38.2,38.2,0,0,0,2.79,11,4.57,4.57,0,0,1-2.4,5.9c-2.45,1.06-5,1.88-8.09,3.16a.55.55,0,0,1-.76-.49c0-1.76-.11-3.53-.17-5.29s-2.55-2.24-3.13-.68a.54.54,0,0,1-.85.23,13.16,13.16,0,0,1-1.61-1.64c-1.33-1.61-3.71.64-2.39,2.24a15.53,15.53,0,0,0,4.14,3.52,2.44,2.44,0,0,1-.13,4.3c-4.56,2.26-7.52,4.49-9.41,6.74a2.48,2.48,0,0,1-4.33-1.09,13.72,13.72,0,0,0-2.38-6c-1.7-2.16-4.82.81-3.14,3a8.67,8.67,0,0,1,1.32,2.5,1.73,1.73,0,0,1-2.51,2c-3.51-2.06-6.11-5.67-8.46-9a2.21,2.21,0,0,0-1-.81c-1-13.58-.94-29,2.86-40.37,7.69-23.08,34.37-32.14,27.68-40C34.79,179.87,0,91.16,0,0V726H768V100.32C768,145.62,757,213,700.23,272.19Zm-95.94,181.1c2.48.62,4.6,4.6,2.9,5.79s-4.26,1.36-4.94,0S602.25,452.78,604.29,453.29Zm-9.36,4s5.79,2.46,5.11,4.44-1.31,2.67-2.53,1.82S593.73,457.82,594.93,457.25Zm-4.77,17.33,7.19-4.77-3.59,8.69ZM602,488.72c-1.61,2-6.21,4.93-9.28,3.4s2-6.81,4.64-6.81S603.61,486.67,602,488.72Zm2.91-12.78c-2.31,1.19-5.89-3.92-3.67-4.09C603.28,471.7,607.21,474.75,604.9,475.94Zm5.19-8.31c-2.39,1.67-7.54,1.39-7.69,0s.66-1.88,4.28-1.72C608.92,466,612.47,466,610.09,467.63Zm7.64-3.39s-2.88-2.44-3.05-5.5,3.58-.51,6.86,0S617.73,464.24,617.73,464.24Zm5.64,0c2.73.4-.52,3.74-.85,3.36C621.5,466.4,620.65,463.85,623.37,464.24ZM629,512.73c-4.6,2.39-6.87,2.9-6.58.51S626.27,502,629.5,503C630.15,503.23,633.59,510.35,629,512.73Zm-1.19-20.18c-3.07.59-6.54-.51-4.8-2.17s5.65-2.86,8.89-2.18C633.73,488.59,630.87,492,627.8,492.55Zm8.86-16.61a15.11,15.11,0,0,0-3.07-2.32c-1.53-.78-3.58-.74-6-3.13S628,465,630,462.66s5.45.34,6.65.85-.17,1.87-1.37,4.6.17,2.89,2.22,2.89S638,473.22,636.66,475.94Zm7.66-2.89c-3.75,3.06.17-7,1.53-8.35C648.25,462.3,648.07,470,644.32,473.05Zm6.13,22c-2.89-1.19-2.89-5.28-2.55-8.35s7.66-5.11,9.71-2.55S651,495.25,650.45,495ZM61.54,333.07a1.07,1.07,0,0,1,.61.15,16.5,16.5,0,0,0,5.19,2,3.17,3.17,0,0,1,2.17,1.63,40.63,40.63,0,0,0,2.4,3.76,4.06,4.06,0,0,1,.67,1.86c.73,7.18,1.77,15.09-10.88,24.75-.79-4.08-1.57-8.3-2.27-12.71a2,2,0,0,0-.47-3c-.1-.68-.21-1.35-.31-2-.36-2.55-1.45-8.71-2.45-16.63A21,21,0,0,0,61.54,333.07Zm-5.94-5.79a.92.92,0,0,1,.07,1.08c-.05-.39-.09-.77-.13-1.16Z" fill="#fff"/></svg>