<svg xmlns="http://www.w3.org/2000/svg" viewBox="0 0 768 796.37"><path d="M768,796.37V0H0V651.49c0-46.1,9.62-102.86,70-207.16,16.92-29.22,47.66-38.45,41.5-52.3,0,0-41-54.27-40.85-82.15a223.28,223.28,0,0,0-1.75-32.27A6,6,0,0,1,70.85,282c.36,5,.37,2.61,2.6,1.87s2.61-.37,2,.19.74,3.54,3.91,5,1.12,1.68-.19,5.78,2,1.12,5.4,0,6.16-3,6.52,2.25,6-4.84,4.29.38,6.35-5.21,8.39-2.6,4.11-5.22,5.23-3.16,3-6.52,5-5,1.12-6.52,3.36-5,2.24-3.17,5.78-4.28-.92-4.29.76-5.22-4.29-3.55-6-4.67,5.4.38,6.15-.73S116,264.17,113,263.6s2.61-1.49,5.22-3-.55-3.17,2.24-3.54,5.77,6,6.14,10.07,5.22-.36,6.72-2.6-6.52-7.46-7.26-9.7,10.62.39,11.37-1.11-10.25-.94-10.43-2.62-4.1-1.68-6.53-2.1-2.23-5.18-2.78-6.3-4.66-1.87-6.34-5.6,4.48,1.5,8.58,3.55,1.85,5.41,2,6.75,3.73-.4,6.15,1.28,2.24-3.54,6.15-3.91-6.7-3.92-7.82-6.63-7.45-1.59-9.69-3.46,3-2.23,6.34-1.85,6.15,4.29,8.2,5.23-.74-6.15.57-7.46-6.53-.57-8.58-.38-4.66-.19-3.72-2.24-8,4.09-8,4.09l-3.91-6.72,2.25-6.33,4.84,6.34h11.74l2.24-3-.37-5.41h-8.2l-8.89-5v0l6.09-1.1s17.91-4.82,20.89-6.12,18.45,5.06,18.45,5.06l8.77-6.89,7.27.2,2.61-3.54,5.6-2.23-2.41-10.26-8.76-3.92L163.44,179s-7.45-2.25-8.76-3.93-3.35-3.54-4.84-3.92-.55-7.08,1.13-9.69-4.28-2.06-4.28-2.06,1.31-3.16,3.54-2.6,3.55-2.24,5.22-2.42.2-3.73.2-6.34,3.17-1.11,4.95-3.91-.84-2.79,0-6,2.7.38,3.64-2.61,3,.75,3.54,3,5,1.5,6.89,2.43,3.92-1.67,5.6-1.29,1.86-2,1.86-3.36.57-3.72,2.06-3.72,1.31-3.36.38-6.15,3.55-3.73,3.74-5.59-3,.74-4.67,1-2.79.32-2.42-.79-1.3-.38-2.79.55-.75-1.3-.75-1.3a4.48,4.48,0,0,0-1.3-3.36c-1.49-1.49-2.23-3.73-1.11-5.41s-3.92,0-5-.38.19-1.68,1.12-2.61,2.8-.18,3.54-1.3a9.35,9.35,0,0,1,1-1.25l3.53,1c-.44-.67-1-1.51-1.56-2.45.24-.11.49-.22.77-.32,2.06-.75,3.36,1.86,5.41,1.87s-1.11-6.34-1.11-6.34a2.83,2.83,0,0,0,2-2c.38-1.68-6.15.18-8.39,0s-1.49-.93,1.12-2.8,5.22,1.13,6.16,0-2.61-4.85-1.67-6.52,2.79,0,4.29-1.3-2.42-4.67-1.68-5.41,3.92.56,4.85,0-.74-2.23,0-4.1-4.66.93-6.71,0c-.49-.21-.64-.43-.6-.65,3.06-1.63,6.1-3,8.28-4.08,5.5-2.62,12-3.5,18.72-3.62.35.48,1.14,1.23,2.09,2.33,1.32,1.53.57,1,1.76,1s1.2,1.38,1,2.17-.67,1-.15,2.35,1,2.47,2.3,2.08a3.17,3.17,0,0,1,3.18.5c.48.61-.43,1-2.23,3.09s.27,1.34,1.3,2.08,1.53-.31,2.75-1.17,1.29-.34,1.61.07,0,1.87.17,3.32-.16.79-.61,2-1.08,1.18-2.37,2.08a10.09,10.09,0,0,1-2.38,1.21c-1.19.61-1,.25-1.6.37s-.89-.85-1.57-1.43-2.06.63-3.05,1.07-.45.69-.49,2.06.07.5-.2,1.15.24.59,1,.87.82-.09,2.17-.49,1.38-.08,1.69.45a6,6,0,0,1,.53,2.36c.11,1.14.88-.14,1.36-.52a3,3,0,0,1,1.32-.59c.38-.08.6-.36.89-.7s.28-.78.13-1.66.41-.77,1.57-1.13,1.19.4,1.61,1.07a5.47,5.47,0,0,1,.4,2.9c0,1.25-.37,1.08-.91,1.39s-.83.21-2.37-.47-.95.2-1.83.78-.36,1,.2,1.52a11.21,11.21,0,0,1,1.84,1.77c.52.81.21.83-.12,1.54s-1,.25-2.15.24-.92-.61-1.64-1.37a9.41,9.41,0,0,0-1.65-1.26c-.62-.51.11-.42.62-1s.09-.74-.21-.84-.77.16-1.65.31-.83-.91-1.08-1.94-1.62-.5-1.85-.65A3.17,3.17,0,0,0,209,97.9c-.82.09-.48.38-.63,1.6s1.42,1.66,1.8,2.14a5.68,5.68,0,0,0,2,2c1.06.5,1.88,1,2.64,1.37a1.73,1.73,0,0,1,.61,2.19c-.33.71-.55.43-1.83,1.34s-1.92-.61-2.38-1.47a23.59,23.59,0,0,0-1.56-2.55c-.8-1.15-1-1.67-1.58-2.42s-1.44-1.54-1.87-2.09-.34-.29-.58-.87a2.37,2.37,0,0,1,.52-2.31,3.49,3.49,0,0,1,1.46-1.25c1.06-.62.38-.64.69-1.66s-.25-1-.65-1.38-.91-.17-1.84.34A14.61,14.61,0,0,1,204,94c-.31,0-.29-1.21-.55-2.12a6.94,6.94,0,0,1,.16-2.46c0-.56-1.1-1.69-1.58-1.87s-1.82.66-2.93,1.64.3,1.66.66,2.82.78,1.83,1.09,2.92,1.43.55,1.71,1.33.27,1.33-.57,2.66-2,0-2.86,0a3.38,3.38,0,0,1-2.2-1.38c-.38-.48.19-1.6.15-2.35s.35-1.38.51-2.73-1.45-.86-2.57-.87-1.42.46-2.26,1.23.11,1.69,1.35,2.27.52,1.37.32,2.53-.55,1-1,1.24-1.29-.65-2.44-1.4-.81-1-3.22-.14-.49,1.5-.75,2.15a2.9,2.9,0,0,0,2,2.91,5.78,5.78,0,0,0,3.76-.18c1.17-.48.71.77.86,1.1a3.14,3.14,0,0,1-.08,1.73c-.18.48-1.24.54-2.72.92s-1.26,1.22-1.51,1.75.7.89,1.26,1.45,1-.32,1.51-.75a5.76,5.76,0,0,1,1.58-.68,3.18,3.18,0,0,0,1.52-1.32c.32-.58.14-1.66,1.22-3s.82.47,1.17,1.2.4,1.35,1,1.67.51-.07,1.07-.62.22-.85.45-1.69,1.22-.85,2.13-1.24,1.72.76,1.93,1,1.18,1.63,1,1.86-1,.32-3.39.78-.9,1.26-1.39,1.76-.21,1.72.06,2.62.89.42,1.65.82.67-.42,1.28-.91a4.46,4.46,0,0,0,1.48-1.94c.5-1.06,1.29-.9,2.42-1s.92.61,1.2,1.39-.16,1.35-.73,2-1.26.66-1.87,1a13.52,13.52,0,0,1-2.66,1c-1.17.36-1.71.79-3,1.14s-1.06.06-1.65-.26-.36-.6-.83-1.34-.12-.58-.14-1.45a3.76,3.76,0,0,0-.38-2c-.37-.61-.53-.25-1.79-.15-.47,0-.51.62-.89,1.26s-.21.72-.19,1.59-.08.62-.27,1.22-1.69-.45-1.69-.45a10.45,10.45,0,0,1-1.51.19c-.56,0-.71-.33-1.3-.65a7.61,7.61,0,0,1-1.61-1.06c-.68-.58-.81.52-1.63,1.17s-.35.83-.56,1.55.27.91.89,1.41,1.05.07,2.24,0,.74.52.67,1.14a12.07,12.07,0,0,1-.67,2c-.39,1.2,1,.8,1.56,1s1.23-.41,2.06-1.06.64-.73.93-2.07.75-.59,1.64-.73.79.15,1.83-.22,1,.62,1.3,1.08-.12,1-.46,1.82a4.2,4.2,0,0,1-2.32,1.71c-.92.39-1.58.68-2.35,1a10.37,10.37,0,0,0-2.17.92c-.41.33-.42,1.44-.37,2.07s1,.8,1.36,1.16.49.06,1.34-.28.27-.22,1-.93.28-.78.56-1.55.62-.49,1.34-.84a3.09,3.09,0,0,1,1.91-.4c.74.09.1,1.26.29,1.78s.94.48,1.67.57.68-.42,1-.69.45-.69.72-1.34-.1-1.26,0-1.75a8,8,0,0,1,1.33-2.27,9.61,9.61,0,0,1,2.74-2.16,17.06,17.06,0,0,1,2.44-1.7,5.92,5.92,0,0,1,4-.83c2,.23.71,1.33.83,1.9a5.34,5.34,0,0,1-.83,2.33,4.4,4.4,0,0,1-1.91,1.39,6.33,6.33,0,0,1-1.87.59,2.11,2.11,0,0,1-1.85-.66c-.38-.48-1.46.26-2.27.79s.59,1.31,1.25,2,.08,1-.1,1.42a2.68,2.68,0,0,1-1.47,1.38c-.51.07-1,.64-2.17,1.49s-.23,2,.11,2.25a3.67,3.67,0,0,0,1.36.59c.77.28,1-.75,1.19-1.16a2.43,2.43,0,0,1,2-.76c.47.18.55,1.12,1.1,1.68s1.11.13,2.37-.53-.31-1.09-.87-2.65.36-.95,1.83-1.77.8.59,1.6.62.74,1.09.7,1.45a8.67,8.67,0,0,1-.1,2.42,16.27,16.27,0,0,0-.95,2.75c-.18,1,.32,1,1.09,1.37s.66.14,2,0,.59-.8,0-1.55a3.6,3.6,0,0,1,.1-3.41c.55-1,.86.1,1.49.49s.78-.28,1.24-1.53-.33-.85-.7-1.45-.83-.35-1.84-.22-.75-1-.5-2,.57-1.68,2.16-2.48,1.06.5,2.56,1,.53-.31.5-1.06-.38-.48-1.15-1.31,1-.45,1.19-1.17-.26-.46-1.19-1.51-.21-.83-.41-1.79.68-1,1.64-1.73,1.16-.36,2.51-.76,1.45.86,1.75,1.51a13.55,13.55,0,0,1,.36,3.28c.1,1.25.77,3,.71,3.44a4,4,0,0,1-.6,1.92,1.87,1.87,0,0,1-2,.76c-.65-.26-.44-.42-1.49-.48s-.71.22-1.65,1.85,0,.75.72,1.77.16.76.87,1.09a3.06,3.06,0,0,0,2,.24c.69-.11.66.7.9,1.28a1.93,1.93,0,0,1-.22,1.84c-.4.77-.52.75-1.38,1.21s-.68,0-1.54-.12-.33-.41-.73-1.21-.75,0-1.7.67-.4.76-.55,2.55.15.89,0,1.43-.77.72-1.86,1-1.49,0-2.83.23-.64.17-1.45.7-1.32.15-2.26-.33-.45-.43-.63-1.51.24-1,1.34-2.39c.27-.34,0-.68-.1-1.25s-.46-.31-1.29-.65-.52.18-1.29.9-.14.67-.08,1.73.16.77-.52,1.74-.65.3-2,.58-1.2.17-1.83-.34-.51-.94-.29-2.22.27-.77.82-1.2.34-.71.16-1.35-.81-.47-1.32-.41-1.11,1-1.47,1.94.12.58-.58,1.24-1.37,0-2.25-.45-.44-1-.76-2,0-1.12.58-1.8a2.23,2.23,0,0,0,.36-1.94c-.05-.63-1.32-.41-2.47-.17s-.55.43-1.2,1.72-.29.9-.29,3-.1,1.86-.83,2.77-1.4-.23-2.82-.34-1.3,1-2.54,2.56-.06,2.61,2,2.54,1.18.51,2.07.93,1.59-1.37,2.75-1.73,1.1-.86,1.58-1.24a6,6,0,0,1,1.45-.7c.33-.15,1-.44,1.9-.83s.77.84.66,1.26.13,1,1.08.81.93,0,2.35.71.67,1.14.57,1.44a10.54,10.54,0,0,1-2.89,1.83c-.92.39-1.28-.77-1.76-1.39s-.78-1.27-1.75-1.51-.58.68-.89,1.7a2,2,0,0,0,1.16,2.31c.87.54-.47,4.49-.95,5.42s2.5.36,2.8.46,2.27-1.78,2.83-1.78.19,2.07.24,2.7,2,1.86,3.12,1.43a1.65,1.65,0,0,0,.93-2.07c-.22-.27-1.32-2.52-1.86-3.2s.45-2.25.84-2.89a8.5,8.5,0,0,1,2.88-2.27c1.26-.66,1.17,1.2,1.26,2s-1.31,1.58-2.44,2.69.86,2.22,1.34,1.84,1.65.26,1.6,1.18,1.3,1.09,2.28,1.21,1.81-1.65,2.13-2.24-1-1.79-2.26-2.44.23-.85,1.12-1.55-.29-1.21-1.15-1.87-.19-1.52.82-2.21,2.38-.09,3.25-.11,1,1.36.52,1.93a3.7,3.7,0,0,0-.76,2.7c.19,1.08,2.2-.73,2.72-.36s-.13,1.11-.29,1.9a16.34,16.34,0,0,1-.57,3.22c-.5,1.62-.73.91-2.42,2.58s-1,2-.85,3,.68.57,2.18,1.06,1.39-1.76,1.78-3.52,1.84-1.89,1.91-.39,1.31,2.64,2,3.34,1.23-1,1.57-2.24-.05-1.19-.19-2.63a5.14,5.14,0,0,0-.65-2.38c-.39-.92.09-1.3-.19-3.07s0-2.48-.19-4.19.52-1.74.43-2.56,1-2.68,2.33-3.39-.29.33.51,1.92,1.05.62,1.94,1.48a1.81,1.81,0,0,1-.3,2.57,10.12,10.12,0,0,0-2.5,1.2c-1.29.9.49,1.61,1.47,3.28s1.22-.85,2.24-1.54,1.55,0,1.29.65a28.58,28.58,0,0,0-.4,3.31c-.19,1.16-.78.84-1.67,1s-1.35-.16-2.18,0-.34,1.27-.11,2.54,1.53.68,2,1.54-.12,2.1-.47,2.93.9,1.29,1.53,1.79,1.45-.69,2-1.37.52-2.3.27-3.33.43-2.12,1.66-3.53.92.6,1.43,1.54.27.9-.82,2.2-.67,2-.69,3.21.86.1,1.35-.4,2.25-1.66,2.27-.78a4.42,4.42,0,0,0,1,2.85c.68.58,1.1-.86,1.79-2a6.21,6.21,0,0,0,.61-3c.09-.73-.73-1.2-1.13-2s-1.42-1.66-2.06-2.6a10.71,10.71,0,0,1-1.58-2.43c-.32-1-.66-.7-2.12-1s-.65-1.26-.05-2.18a1,1,0,0,0-.37-1.6c-.41-.23-.55-1.12-.76-1.95s.88-1.14,1.58-1.25.71-1.34.87-2.13-1.12-1-1.8-1.58-1.47-.74-3-.61-1.35-.16-2.13-.88-.38-3.15.14-4.33,1,1.11,1.73,2.19,2,.3,2.53.12.66-.86-1.63-3.06-.28-.22-.95-1.35.25-1.09.89-2.82-.64-1-1.28-1.77a15.64,15.64,0,0,1-1.85-3.89,1.45,1.45,0,0,1,1.69-1.66c1.18.08,1.75.52,2.52-.2s.4-1.32-.06-2.18a6.06,6.06,0,0,0-2.65-2.25,3.8,3.8,0,0,1-2.15-1.87c-.33-.84,1.16-1.91,1.71-2.34s1.23-.42,1.81.46a4.52,4.52,0,0,0,1.77,1.39,5.18,5.18,0,0,1,1.16,2.75,4.54,4.54,0,0,0,1.21,2.38c.37.6,1.34.28,2,0s.6-1.36-.15-1.88a1.94,1.94,0,0,1-.32-2.53c.53-.75,1.77.27,2.38.9s2.09-.31,2.89-.71.7-1.22.43-2.13-1.49-1.6-1.94-2.47-1.94.09-4,0a29.92,29.92,0,0,0-3.68.13c-1.56,0-1.51-.37-2.27-1.33s-1.31-1.52-1.75-2.07a14,14,0,0,1-2.28-4.32c-.32-1.53.48-4.6,1.08-6s1.67-1,3.09-.88,1.47,1.17,2.31,2,.17,1.76-.66,2.41-.62,2.17-.87,3.69,1.06.5,2.7.32.54,1.25.13,2.57,1.07,1.49,2,1.73,1.5-.63,2.22-1.41-.26-1-1.16-2.32-.13-1,.79-2,1.42-.45,2.57-.69,1,1.31,1,2.48a9.17,9.17,0,0,1-.42,3c-.29.33.4,1.35.91,1.28a7.6,7.6,0,0,1,2.88.84c.22.28-.27,2.33-.37,2.63s-.19,2.16.87,2.66,0,1.18-.53,2.86-1.67,1.54-2,1.44-1-1.18-1.28-1.33-1.14,1.23-1.31,2.14,1,1.18,1.08,1.93-1.6.93-2.47,1-1.49-.62-2.3-1.64-2.41,1.45-3.51,2.88.88,1.53,3,1.78,1.41-.33,2.54-.45,0,1.12-1.3,2.58a4,4,0,0,1-2.92,1.52c-.9.27.14,1.45,1.37,1.59s.72.77.87,1.54-.41,3-1,3.36,0,2.18.67,2.69,1.46-.26,2.53-1.44.14-3.22.45-4.8,1.1.69,1.57,1.43,1.55.56,2.33-.28.16-1.35-.76-2a5,5,0,0,1-1.93-2.59c-.21-.83,1.66-2,2.53-1.44s1.27,2.45,2.28,2.32,1.18-1,1.67-2.54-.88-1.53-1.6-2.3.25-2.08,1.41-3.44,1.76.83,2.26,1.89.33,4.08.27,4.57-.67,2-1.63,2.17-1.37,1.08-1.49,2.06a6.18,6.18,0,0,0,.83,3,5,5,0,0,1-.33,3.26c-.24.53-1.73.47-2.38.21s-1.63.62-1.92,1.51-.42,1.45-1,1.32-1.48.94-2.38,1.77-.86,3,0,4.35,1.54-.44,2.63-.19-.8,2.09-1.56,3.24,0,2.11.83,1.9,1.16-.36,1.62.5.45,3,.72,3.88,1,2.3,1.11,2.68-1.4,2.89-2.12,3.79.3,3.21.84,3.9,1.71-.24,2.43-1.58.85-3.57,2.17-4.16,1.78,1.7,2.09,2.8,2.08-.75,2.62-2.18-1.09-1.81-1.41-2.78-2-1.17-2.78-1.7a7.43,7.43,0,0,0-2.22-1.25c-.67-.14-.92-2.16-1.28-3.33s1.75-1.16,3-.82,1.93-1.08,2.23-2.1-.57-2-1.48-2.72-1.59-.19-2.28-.65.16-1.34,1.05-2a12.58,12.58,0,0,1,2.82-1.78c.83-.21,1.1,1.25,1.63,2.5s.18,1.63-.17,3,.29,1.78,1,3,.18,1.64-.36,2.51a14.29,14.29,0,0,0-1,2.37c-.51,1.18,1,1.67,1.81,2.57s1.86.53,3-.26.06-2.61.92-3.62,1,.24.9.85.81,1,2,1.61.73,1.21.34,3,1.5.93,2.41.1.58-1.24.88-2.13,0-1.44-.4-3.47-.56-.56-3.41-.65-.55-1.13-.6-2.75,1-.37,2.2.26,1.14-.11,2.21-1.29-.06-1.06-.42-2.23-1.51-.36-2.34-.71-1.95.2-3.93,1.09-2.19-.38-2.64-.81-.21-2.39.79-3,1.88.41,2.87.4.81-.53,2-1.25,1,0,2.41.09,1.91.17,2.26,1.45,1.38.91,2.07,1.37.74,1.64-.8,3.63.68,2.14,1.31,3.08,1.86-.46,2.73-1.48.44-2.12-.63-3.06-1.24-2.13-1.56-3.66,1-.76,1.5-.08,1.05.63,2.19.95,1.67-1,2.14-2.36-.92-1.17-1.57-1.43a4.1,4.1,0,0,0-3-.49c-1.6.38-.8-.59-1.34-1.27s-.16-1.76-.64-2.5-1.53-.68-2.37.09.06,1.06.15,2.44-.84.77-1.75.6a5.1,5.1,0,0,1-2.54-1.67,10.83,10.83,0,0,1-2-3.84c-.3-1.22-1.67-1.13-2.8-.58s-.12,1.54.49,2.73,0,1.55-.9,1.82-2.32-2-2.9-3.39A5.34,5.34,0,0,1,252,128c-.08-.94,1-2,1.39-2.32s1.46-.26,2.86.52,1.76-.16,2.22-.85-.65-1.38-.85-1.78a2.88,2.88,0,0,0-1-.87c-.23-.15-1.28-.21-1.88-.41a12.12,12.12,0,0,1-2.25-1.45c-.52-.37-1-2.42-1.3-3.2s1.23-2,2-2.93,1.69-.11,2.75-.17,2,.79,2.76,1.39a1.45,1.45,0,0,1,.47,1.85,9.57,9.57,0,0,0-1.6,2.49c-.23.84.38,1.47.76,2s1.17.08,1.64-.73a3.8,3.8,0,0,1,2.12-2.12c1.16-.36.53,1.25.84,1.78a6.18,6.18,0,0,1,.49,2.17,3.2,3.2,0,0,1-.78,1.84A11.23,11.23,0,0,0,260.3,127c-.71.78,0,1.87.22,2.39a2.26,2.26,0,0,0,2.39.78c1-.25,1.69-3.22,2-4.24s1,.06,1.34.71-.12,2.1-.24,3.09,1.77.83,2.43.53a4,4,0,0,0,1.84-1.89c.27-.78-.89-1.42-1.59-1.87a10.89,10.89,0,0,1-2.11-3.11c-.35-.73,1.24-1.1,2.39-1.34s1.67,1.69,2,2.42,1.73,3.19,1.59,3.86,0,2-.63,2.72-.53,1.31-.72,2.9,1.57.92,1.94,1.16,1.73-1.37,2.25-1.6.92.5,1.05,1.1a7.22,7.22,0,0,1-.13,2.74,21.62,21.62,0,0,0-.69,3.36c0,1.07.5,1.53-.19,2.43a7.61,7.61,0,0,1-2,2.12c-1.41,1.11-.38,4,.16,4.44s2.65-2.44,3.46-4.31,1.64-3.05,2.65-3.32,1.41,2.23,1.2,4,2.95,0,4.06-1.09.18-1.55.3-2.52-3.17-3.12-5.47-3.59-1.08-2.49-1.16-3.48,1.76-1.56,3.1-2.09,1.32,1.24.71,3.13,1.57,2.45,2.43,3.53,2.15.06,2.46-.89-1.3-2.31-1.25-3.58,2.33.27,3.5,2,2.59-.28,3.16-.9-.18-2.67-1.88-3.27-4.65-.55-6.11-.62.1-1.66,1.09-2.63.75-1.28.09-2.34-1.71.29-2.78,1.83-1.71,2.06-2.6,2-1.23-2.9-1.89-4-2.66-.71-4-.57-1.93-3.57-1.63-4.51,1.74-1.37,3.19-2,.87.89.74,2a1.91,1.91,0,0,0,2.31,2c1.32-.33,1.37,1.74,1.75,2.67s1.58-.9,1.95-1.54a1.35,1.35,0,0,0-.74-2c-1.06-.23-1.1-.72-2-1.23s1.29-2.59,2.74-3.21,3,2.22,3.14,3.32A8,8,0,0,0,288,126a6.93,6.93,0,0,1,2.2,3c.25,1.21,2,.54,2.68-.17s.34-2.91-.52-3.11a6.58,6.58,0,0,1-3.17-2.24c-.58-1,3.1-.52,3.9-.62s1.2.64,1.45,2.73,3.93,1.64,4.68,1.93,1.66-2.36,1.51-2.77a7.85,7.85,0,0,0-3.89-2c-1.63-.3-.85-1.09-.91-2.27s1.5-1,2.11-2-1.35-1-2.95-.84-1.69,1-4.07,2.85-1-1.49-1.6-3.13,3-2.89,4.08-3.74,2.31.47,3.19.47,2.91.35,3.57,1.41,2.2-1.22,3.21-3.06-1.22-1.33-4.89-.19-2.52-1.18-4-1.75-2.59.28-3.68,2a14.85,14.85,0,0,1-4.49,3.89c-.84.49-1.09-.72-.13-2.18a2.11,2.11,0,0,0-.46-2.8c-.25-.33-2.31,1.29-3.19,2.86s-.93-1.19-1.27-2.51-2.73-1-3.92-1-1.15,1.43-.1,2.54,1.93,1.11,1.9,2.19-1,1.35-1.37,1.61a2.93,2.93,0,0,1-2.7-1.21,2.89,2.89,0,0,0-1.84-1.89c-.86-.2-1.09.86-2.46,2.46s-2.33.61-3.21.61a8.27,8.27,0,0,1-3.25-.78c-.26-.33-1.47-2.53-2.55-2.56s-3.21-2.74-3-3.41,1.45-.61,2.39-.3a3.63,3.63,0,0,0,3.06-.13c1.45-.62,1.23.44,1.11,1.41s1.2,1.51,1.56,2.64,2.45,0,3.07-1-1.63-1.17-1.9-3.07,1.1-.16,2.15.94,2,.34,2.8-.45.47-1.42.3-2.52-2.06-.84-2.4-1.27-.8.1-1.65.59-1.91-.42-2.34-1-.25-1.21-.26-1.9-.84-1.28-1.2-1.52-1.25-.24-2.16.83.4,1.62.69,2.44-.76.6-1.88,1-3.69.45-4.78-.27-2.08-1.52-3.27-1.47-2.2.33-3.29-.39,0-1.38-.5-3.3-1.9-1.3-3.09-1.25-1.32-2.12-1.25-3.58.3-1.64,1.29-1.72,1.47-.81,1.89-1.84-1.07-.91-2.41-.38-1.22-1.33-.47-1.92,1.45.27,3-.24,1.66.1,2.26.86.32.62,1.17,1.71-.77,2.36-2.45,2.46-.69,2.47-.39,3.29,1.35,1,2.24.17,1.09-1.74,2-1.24.18,1.79.07,2.76,3.24,1.66,4,2.45,1.92.42,2.79-1.15-1.33-1.24-2.38-1.46a4,4,0,0,1-2.34-1c-.71-.68.09-1.66.86-3.14s.42-1.92-.56-2.72-2.46-2.46-2.3-3.81,1.77-.87,3.06-1,1.76,1.78,2.78,3.08,1.63,1.18,3.14,1.75.67,1.75,0,2.65-1,1-1.11,1.93,1.37.85,2.32.28,1.34-.53,2.46,0,.35,2,.3,3.28,2,.73,3.42,1,.74-1.29-.07-2.76,0-1.58,1.76-2.45,2.45.88,3,1.53a5.1,5.1,0,0,1,.38,3.39c-.22,1-.54.43-2.36,1.69s-.07,1.46,1,2.18,1.15-.55,2.45-1.58,1.74.21,2.16,1.63,1.48.77,2.56.8,1-1,1.85-2.34-1.37-.85-2.2-.55-2-1-2.66-1.59.06-1.27,1.44-2.19,1.81.51,3,.64,2.72,1.9,3.21,2.74-.31,1.83-.88,3.34,1.24,1.13,2,1.41,1-.46,1.95-1.53-.57-1-1.08-2.49.87-.68,2.81-.45,1.16.13,2.28-.23.6-1.69.13-2.73-1.5-1.46-3-1.34-2.91.54-3.47.28,0-1.38-.09-2.57-1.46-1-2.69-.51a11.32,11.32,0,0,1-3.88.42c-1.08,0-1.31-.55-1.5-1.45a5.4,5.4,0,0,1-.05-2.07c.09-.78-1.37-.85-2.8-.43s-1.71,1.17-2.74,1.64-1.94-1.11-2.53-1.87a2.08,2.08,0,0,1-.64-2.14c.23-1.06.92-2,.91-2.65s-1.29-.74-3.1-.36-.32,1.83-1,3.61-2.19,1-3.11.52a30.89,30.89,0,0,1-4.13-4.13c-.34-.43,1.21-2.7,2.7-3.71s2-.65,2.74.13,2.56-.09,3.9-.62,2.2.56,3.18,1.36.83,2.16.45,3.69,1.8,1.39,2.4,2.15,2-.35,3.48-1.16-.53-1.34-2-1.91-.31-1.51.63-2.78,2.13.26,2.94.84,1.75,2.67,2.35,3.43.53,1.34-1.31,2.79.3,2.39.43,3,1.63.29,2.44-.7,0-2,1.25-3.09,1.76.9,1.6,2.25,1.43,2,2.7,2.09.55-2.19.8-3.44-.66-2-1.9-2.19-2.3-1.35-1.5-1.46,1.78-1.75,1.76-2.44S286.74,85.21,286,86s-1.54.5-2.89.34-1.18-1.71-.76-2.74,1.62-1.28,3.18-2,2.08,1.52,2.93,2.61,1.93,2,2.44,2.64a4.31,4.31,0,0,1,.43,3,12.55,12.55,0,0,0,.37,3.58c.18.91,1.42.46,2.83.93s1,.61.48,2.61.62,1.45,1.37,1.73.45-.53,1.21-1.13.36-2.22-.19-3.36A4.12,4.12,0,0,0,294.19,92c-1.72-.4-1.54-2-.6-3.21s2.52.3,4.21,1.77,2,0,2.93-.73.19-1.55-.45-2.8-2.3-1.36-3.17-2.25-3.47-.6-3.83-.84-2.36-1.66-.77-1.86a5.54,5.54,0,0,1,3.58.52c.92.5.56.26,1.53-.51s.7-.9.87-1.56-.85-1.09-1.58-1.57-2.26,0-3.86.23a7.84,7.84,0,0,1-3.68-.43c-1.14-.33-1.23-.44-1.22-1.33s.55-1.31,1.8-1.94,2.07,0,3.3.39,1.85.12,2.76-1-1.27-2.51-1.81-3a2.46,2.46,0,0,0-.58-.34c3.24-1.44,6.41-3.1,9.85-3.92,9.11-2.15,18.37,1.83,27.51,3.83,21.94,4.8,73.59-2.12,92.64-14Q429,54.13,434,50.31a116.85,116.85,0,0,1,43.72-6.38c-1.8,6.52-4.64,12.53-5.54,15.52-2,6.59,8.94,8.43,14.45-14.84A136.16,136.16,0,0,1,500.83,47c-.06.13-.1.27-.17.39-4,8.08-9,14.8-10.76,22.88s5.83,8.07,12.78-10.09c1.66-4.32,3.26-8.22,4.78-11.57,4,1.08,8.17,2.36,12.4,3.88-1.7,6.42-5.73,15-13.59,27-16.37,24.9,3.59,21.76,10.76,8.3s10.77-38.57,21.76-22.65,38.12,2.91,42.83,4.71-.22,10.54-9.42,24.89-2,17.5,8.75,10.54,8.3-26,17.49-21.08,12.34,27.14,12.34,27.14c-29.6,6-37.45,22.87-38.8,28.26s-1.57,13.68,7.85-1.12S612.12,124,612.12,124c-9,3.14-28.48,20.19-34.08,27.59s-9.87,16.82-7.18,25.79,13.45-.23,22-24,44.85-22.2,37.9-19.29-10.09,11.67-13.68,20.64,3.14,12.56,9.42,10.09-2.24-10.09,2.69-20.41,24.44,9.42,26.69,14.13.89,17.27-3.59,20.86S637,183.7,626.7,186.72s-13.45,17.61-18.16,27.7-1.13,15.93,6.28,4.71,20.63-26.46,28.7-30,15.48-2.91,10.77.9-10.32,15.7-13.24,22.43-1.56,14.35,4.27,12.11S651.15,209,657,199.62s8.52-7.4,6-1.79-5.15,11.66-4.71,16.82-1.34,11-9,19.06-11,3.81-15,10.32,3.14,5.38,11,3.81,25.79-20.41,27.36-28.93,6.17-19,6.17-19c6.15,4.62,23.08,41.53,15.38,64.61s-32.29,30.76-27.68,40,32.26,20,15.45,49.14c-.21-.39-.43-.78-.62-1.18-1.09-2.36-2.66-4.39-3-7a38.54,38.54,0,0,1,.57-13.66c.47-2.21,1.51-4.56,1.79-6.79.24-1.94-2.39-4.66-3.64-2.28-.72,1.36,0,4.6-.25,6.22-.39,3-1.66,7.9-5.75,6.63-6.06-1.86-4-12.05-4.3-16.63s-3.48-8.32-3.54-12.92c0-1.85-.34-3.31.23-5.07a12.22,12.22,0,0,0,.64-5c-.16-2.23-2.68-1.75-3.16-.09s.42,4.77-2.3,4.17c-2.06-.46-2.86-4.66-5.27-4.06-2.67.65-.23,4.22.47,5.33,2.18,3.45,5.15,6.66,6.55,10.54.83,2.3-.58,4.09-3,4.28s-5.23-1.64-7.07-2.85a30.47,30.47,0,0,1-8.85-9.34c-.86-1.37-1.42-3.34-2.72-4.31s-2.44-.83-2.59.83c-.11,1.18,1.33,3.11,1.89,4.11a32.15,32.15,0,0,0,3,4.24c.46.59,2.5,2.27,2.46,3-.08,1.13-1.89,1-2.12,2.33s1.07,1.88,2.15,2.37c2.93,1.33,6.31,1.12,9.4,2,3.68,1.06,11.64,1.86,10.28,7.8-1,4.59-6.39,1.22-8.88,0-5.34-2.71-11.22-4.14-15.7-8.33-1.33-1.24-3.77-3.65-3.66-5.6.06-1.19.75-1.85.44-3.12a4.76,4.76,0,0,0-2.08-2.76c-1.5-.9-1.46-.24-2.45.77-.61.62-.13.81-1.15.76s-1.44-.89-2-1.44c-1.43-1.52-3.15-3.66-5.38-4-2-.31-2.09,1.22-1.44,2.6.87,1.83,2.74,2.86,4,4.34,1.89,2.12,5.54,6.74.31,7.51-2.85.42-5.77-1-8.48-1.64-2-.45-8.11-.13-6.11,3.32s8.66,3.41,12,3.58c3.9.21,8,.47,11.68,1.94,2.51,1,5.81,2.1,3.64,5.29-1.38,2-5.35,2.29-7.54,2.67a40.78,40.78,0,0,1-12.33.22,26.24,26.24,0,0,1-4.78-1c-1.18-.38-3.2-.83-4,.81-1.27,2.49,2.22,3.38,3.53,3.77,4.95,1.49,10.28,1.11,15.36.73a67.91,67.91,0,0,0,12.2-2.24c3.72-1,7.25-1.89,11.12-1.19,6.76,1.22,16.39,5.49,19.28,12.2,1,2.39-.24,4.08-2.78,4.13-2.9.06-4.72-2.26-7.07-3.59a37.39,37.39,0,0,0-10.35-4.14c-1.74-.39-6.89-1.89-8,.29-1.64,3.08,5.35,4.23,7,4.6,3.4.76,7.88,1.67,9.9,4.82,2.48,3.86-3.23,7.23-6.66,7.68-2.89.37-5.23-1.12-7.7-2.3a13.53,13.53,0,0,1-6.5-5.62c-1.31-2.46-2.6-5.25-4.68-7.18-1.12-1-4.26-3.3-5.79-1.62-1.75,1.92,2.83,4.41,3.66,5.62,2.36,3.45-1.61,3.69-4.15,3.71-1.42,0-2.94-.52-4.35,0s-2.36,1.37-1.59,2.67c1.68,2.86,8.53,2,11.31,1.95,2.42,0,6.2.43,7.67,2.54,4.89,7-10.39,3.11-12.4,4.37-1.42.89-1.35,2,0,2.88s5.35.15,6,1.81c.56,1.41-5.17,7.39.43,6.84,2.12-.21,2.78-2.12,4.08-3.38a19.34,19.34,0,0,1,3.23-2.48,37.75,37.75,0,0,1,5.12-2.58c2-.86,7.11-4.52,7.68-.25.33,2.42-2.29,6.09.26,8,3.73,2.81,4.71-5.63,5-7.34,1-5.36,8.54-12.19,14.33-10.85a7.36,7.36,0,0,1,4.08,3.15c-17.3,25.06-43.87,34-38.11,46.94,6.16,13.84,21.59,40,26.21,55.37,3.3,11,18.46,168.11,33.58,191.44C731.56,701.16,768,737.1,768,796.37ZM285.71,74.24c.1.85-1.73,1.51-2.48,1.61-.44.05-.7-.41-.92-1C283.45,74.69,284.58,74.49,285.71,74.24Zm-14.64,1.35a4.32,4.32,0,0,0,.58-.46,58.49,58.49,0,0,0,7.37,0c0,.1-.11.18-.17.28-1.11,1.93.62,1.45.64,2.14S277.88,78.65,277,79s-1.3-1.44-2.05-2.61-1.74-.2-2.12,1.33,1.28,1.62,1,2.87-2,.54-3.37.19-1.13-1.21-1.81-3S269,77,271.07,75.59ZM259.62,73.7l2.07.31a3.31,3.31,0,0,0,.87,2.14,3.35,3.35,0,0,0,2.69.52c1.59-.21.87,1.77.4,3.19s-1.71,1.17-3,1.7-1.61-.48-2.1-1.33.16-1.35-.33-2.2-1.07-.91-1.64-1.86S259,74.82,259.62,73.7Zm-8.67.88c1.29.45,1.09-.86.52-2.21,1.61.25,3.21.52,4.82.79-.41.43-1.44.63-2.71,1.63-1.52,1.2.87,1.78,1.82,2.09s1.19,2.4,1.2,3.09-1.14.55-1.75.67a3.16,3.16,0,0,1-2.32-1.16c-.23-.51-.69-2.44-1.09-3.17s-1.92-.42-2.77,1,0,2,1,2.76a16.85,16.85,0,0,0,3.48,2.18c.75.29-.34,1.14-1.23,2s-2.35-.08-2.88-.54-1.13-2.1-1.83-2.77-2.1,1.13-2,1.93S245,84,244.41,85s-2.32-.28-3.88-.46-2.46-1.57-3.08-3,.81-1.87,2.61-2.93,2,.33,3,1.33,2,.15,2.79-1.14S245.05,77.12,243,77s.58-2.39,3.15-3.36S249.25,74,251,74.58ZM227,71.65c.05-.47.18-1,.23-1.52,2.39.18,4.73.36,7,.48.36.31.82.63,1.14,1,.52.51,1.54,0,2.61-.76,1.73.08,3.46.22,5.19.41,0,1-.81,2.07-2,3.19-1.43,1.31-2.8-.43-3.7-1.12s-2.37-.77-4.06,1.09,1.56,1.75,2.05,2.6-.05,1.27-.78.61-2.56-.61-3.77-.36-2.68-2.29-3.19-2.94A3.68,3.68,0,0,1,227,71.65ZM101.13,278.08c-1.14-.13-1.36-4.32,0-6.25s1.31.95,1.39,2.77C102.65,277.54,102.26,278.2,101.13,278.08Zm0-16.36c-.31-.27,2.41-2.9,2.73-.69S102.14,262.55,101.17,261.72Zm3.3,20.33c-.69-1-.14-1.5,1.48-2.05s3.6,4.16,3.6,4.16C109.09,285.13,105.16,283.05,104.47,282.05Zm8.31-5.5c.42,1.66-3.6,2.21-4.71,1.66s-1-2.64,0-4S112.28,274.53,112.78,276.55Zm-4.41-14c.41,2.66,2.48,5.71,0,5.57s-4.47-2.48-4.47-2.48S108,259.86,108.37,262.53ZM96.76,244c2.5-3,8.74-3.18,6.79-1.23C102.44,243.86,94.27,247,96.76,244Zm1.66,5.54c0,1.66.13,2.77,2.35,1.81s3.33-2.08,3.74-1.11,2.63,3.75.68,5.4-4.43,3.87-6.37,1.93-1.9-3.6-2.54-4.84a11.79,11.79,0,0,0-1.88-2.5C96.62,249.12,98.42,247.87,98.42,249.53Zm-4,26.5c1-1.87,3.45,1.32,3.32,3S93.4,277.91,94.37,276Zm5,6.14L95.46,288l-3.18-2.93Zm-12.6,0c0,2.18-4.31,6.24-5.55,3.76s1.12-6.22,2.78-7.54S86.75,280,86.75,282.16ZM80.89,257.4a5.94,5.94,0,0,1,1.57-2.87l2-.45a9,9,0,0,1-1.78,7.23C81.3,262.72,80.41,259.89,80.89,257.4Zm-8.5-.61c-.48,2.07-5.06,4.13-7.41,4.78-.4-1-.83-1.94-1.28-2.83Z" fill="#fff"/></svg>