<svg xmlns="http://www.w3.org/2000/svg" viewBox="0 0 768 1024">
  <g>
    <path d="M658,570.64c-4-3.12-8.41-5.46-12.6-8.14a.35.35,0,0,0-.32-.21c-3.49-1.7-6.85-4.3-10.7-5.22a5.83,5.83,0,0,0-3.35-1.1c-.75-.62-1.57.13-2.38,0a1.16,1.16,0,0,0-.72.57,3.36,3.36,0,0,0,1.64,2,33.49,33.49,0,0,0,3.22,2.46c.85.49,1.56,1.17,2.38,1.63,2.85,2.07,5.54,4.38,8.48,6.26a20.79,20.79,0,0,0,3.61,3.07c4.21,4.12,8.26,8.38,11,13.66,1.83,4,2.32,8.68,3.69,12.93.63,3.11,1.2,6.29,2,9.35a5.43,5.43,0,0,0,.31,1.69,20,20,0,0,0,3.85,8.27l-.39,0a22.26,22.26,0,0,1-5-7.45.15.15,0,0,0,0-.22c-1.86-6.92-1.54-13.66-8.1-18.37a28,28,0,0,0-3.83-2.51.24.24,0,0,0-.1-.1.36.36,0,0,0-.34-.27,1.93,1.93,0,0,0-.81-.43.16.16,0,0,0-.22-.08c-2.92-1.71-7.27-3.39-10.37-1.25,8.27,3.43,17.4,10.12,17.77,19.9a23.4,23.4,0,0,0,1.51,7.11c1.86,4.45,5.4,8.23,9,11.33,10.78,8.31,21.57,20.09,22.95,33.77-6.86-7.18-21-9.43-22-20.87a.13.13,0,0,0,0-.21,34.76,34.76,0,0,0-6.79-17.8,1,1,0,0,0-.3-.45.14.14,0,0,0-.08-.13,7.13,7.13,0,0,0-1.73-2.47c-.61-.7-1-1.7-1.9-2.11a39.33,39.33,0,0,0-11.16-9.22,32.76,32.76,0,0,0-6.15-3.6c-8.8-6.8-6.45-19.06-8.09-28.69-.4-2-.72-4.41-2.48-5.79h0a2.56,2.56,0,0,0-1.91-1.44c-1-.62-2.46-.57-3.61-.95a.89.89,0,0,0-.7-.38c-9-4.14-15.44-13.54-17.88-22.87a18.29,18.29,0,0,0-.8-2.68,19.76,19.76,0,0,0-1.65-4.18c-4.5-10.19-8.84,2.06-7,7.44a39.14,39.14,0,0,0,12.54,19.59c9.52,7,14.76,4.16,14.57,19a.16.16,0,0,0,0,.23,3.07,3.07,0,0,0,0,1.28,2.1,2.1,0,0,0-.14,1.61,1.36,1.36,0,0,0,0,.87.17.17,0,0,1,.09.13l-.09-.13c-1.57,13.22,1.22,21,14.85,24.44.74.61,1.71.49,2.52.83,1.53.62,3.12,1,4.63,1.69,2,.68,2.91,2.54,4,4.21.89,1.63,1.12,3.48,1.71,5.23a46.05,46.05,0,0,1,1,6.89c0,1.61.11,3.2.13,4.82a.21.21,0,0,0,0,.24c0,1.53-.15,3-.27,4.52a.34.34,0,0,0,0,.35c-.66,6.12-3.59,12.72,0,18.48a33.22,33.22,0,0,0,11,12.31c5.33,4.23,11.8,6.63,18.16,8.83,7.26,4.75,9.71,14.1,13.52,20.61a4.83,4.83,0,0,0,1.55-.21c4-.87,5.46-5.21,7.77-8l2.11-1.61c-.95-4.7,4-5.14,2.51-10.16,1.19,1.89,2.72,4.15,5.24,3.83,6.43.84,12.7-4.16,6.54-9.78-.9-.84-1.63-1.94-2.54-2.74-2.59-2.88-4.32-6.45-6.21-9.79a.9.9,0,0,0-.27-.68.56.56,0,0,0-.08-.38c-.34-1.7-1.44-3.25-1.73-5,.22-1.45-.63-2.93-.51-4.39a1.46,1.46,0,0,0,0-1c.87-12-6.22-23.75-16.57-29.48a.17.17,0,0,0-.21-.08,17,17,0,0,0-5.42-2.87c-4.75-2.61-10.88-3.54-13.38-8.91h0c-2.85-5.3-2.88-11.44-4.39-17.11-.42-1.73-.46-3.72-1.35-5.27A24.57,24.57,0,0,0,658,570.64Zm37.18,66.15a18.8,18.8,0,0,1,3.86,13.62c-.37,1.29.12,2.77.28,4.1a33.58,33.58,0,0,0,.63,3.55.5.5,0,0,0-.09.35c-.66-1-.68-2.64-1.62-3.33,0,0,0-.08.07-.13-.15-1.34-1.28-2.21-1.54-3.55h0c.37-.3-.15-.69-.38-.9-.39-.45-.35-1.12-.74-1.58-.35-1.76-1.41-3.2-2.08-4.82.23-.47-.39-1-.54-1.46a.33.33,0,0,0,.11-.14c-.44-1.06-.8-2.49-1.74-3.16a10.28,10.28,0,0,0-2.94-5c-1.45-2.27-3-4.4-4.48-6.61.44,0,.7.37,1.08.47A50.86,50.86,0,0,1,695.2,636.79Z" fill="#2c7cbb"/>
    <rect width="768" height="1024" fill="none"/>
  </g>
</svg>
