<svg xmlns="http://www.w3.org/2000/svg" viewBox="0 0 768 1033.24">
  <g>
    <path d="M227.89,811.41c-.59-5-2.09-9.8-3.15-14.66a.36.36,0,0,0-.09-.38c-1.26-3.67-1.8-7.88-3.87-11.26A5.82,5.82,0,0,0,219.2,782c-.1-1-1.21-1-1.71-1.67a1.13,1.13,0,0,0-.9-.11,3.32,3.32,0,0,0-.24,2.55,32.6,32.6,0,0,0,.54,4c.25.94.27,1.93.53,2.83.55,3.48.82,7,1.56,10.42a22.11,22.11,0,0,0,.38,4.73c.07,5.89-.07,11.76-1.85,17.46C215.93,826.36,213,830,211,834c-1.75,2.64-3.6,5.29-5.16,8a5.49,5.49,0,0,0-1,1.41A20.15,20.15,0,0,0,201.7,852l-.29-.25a21.94,21.94,0,0,1,1.75-8.77c.1,0,.13-.09.14-.18,3.58-6.21,8.57-10.76,7.26-18.72a29,29,0,0,0-.93-4.48,2.52,2.52,0,0,0,0-.58,2.06,2.06,0,0,0-.27-.87.17.17,0,0,0-.1-.21c-.86-3.28-2.74-7.54-6.45-8.22,3.42,8.27,5.14,19.46-1.51,26.64a23.12,23.12,0,0,0-4,6.09c-1.83,4.46-2,9.63-1.64,14.38,1.76,13.5,1,29.45-7.65,40.11.22-9.93-8.21-21.54-.83-30.35a.14.14,0,0,0,.14-.16A34.77,34.77,0,0,0,195.1,849a.94.94,0,0,0,.1-.52.14.14,0,0,0,0-.15,6.94,6.94,0,0,0,.52-3c.08-.93.49-1.92.16-2.84a39.59,39.59,0,0,0-1.37-14.41,33.39,33.39,0,0,0-1.81-6.9c-1.41-11,8.92-18,14.57-26,1.16-1.73,2.6-3.63,2.34-5.85h0a2.57,2.57,0,0,0-.33-2.37c-.31-1.18-1.33-2.14-1.88-3.22a.88.88,0,0,0-.23-.77c-3.44-9.29-1.34-20.49,3.52-28.81a18.24,18.24,0,0,0,1.34-2.46,20.39,20.39,0,0,0,1.79-4.12c4-10.39-7.71-4.8-10.23.29a38.94,38.94,0,0,0-5,22.72c1.74,11.7,7.49,13.37-3.16,23.74a.17.17,0,0,0-.18.15,3.13,3.13,0,0,0-.92.89,2.08,2.08,0,0,0-1.23,1,1.29,1.29,0,0,0-.62.62.18.18,0,0,1,0,.16s0-.11,0-.16c-10.46,8.24-14,15.69-6.77,27.78.08,1,.85,1.55,1.19,2.37.64,1.52,1.5,2.91,2.08,4.47.94,1.91.26,3.85-.15,5.81-.52,1.79-1.67,3.26-2.49,4.91A44.59,44.59,0,0,1,182.2,848c-1.12,1.16-2.18,2.34-3.31,3.5a.2.2,0,0,0-.19.15c-1.09,1.08-2.23,2-3.39,3a.35.35,0,0,0-.24.26c-4.79,3.86-11.53,6.47-13.06,13.07a33,33,0,0,0-.93,16.49c.78,6.75,3.65,13,6.6,19.07,1.76,8.5-3.11,16.84-5,24.14a4.92,4.92,0,0,0,1.25,1c3.4,2.18,7.54.17,11.15-.17l2.63.35c2.65-4,6.43-.84,8.95-5.41-.49,2.18-1,4.86,1,6.42,3.95,5.13,11.92,6,11.54-2.29,0-1.24.22-2.53.14-3.74.2-3.87,1.51-7.61,2.54-11.32a.93.93,0,0,0,.28-.67.54.54,0,0,0,.21-.32c1-1.44,1.28-3.31,2.31-4.75,1.17-.87,1.62-2.52,2.74-3.47a1.46,1.46,0,0,0,.71-.72c9.07-7.84,12.39-21.19,9.13-32.56a.16.16,0,0,0-.1-.2,16.9,16.9,0,0,0-1.8-5.87c-1.51-5.2-5.18-10.19-3.16-15.76h0c1.72-5.76,6-10.13,9-15.2.92-1.53,2.3-3,2.77-4.68A24.58,24.58,0,0,0,227.89,811.41ZM207.4,884.48a18.85,18.85,0,0,1-6.89,12.36c-1.17.65-1.88,2-2.7,3.09a33,33,0,0,0-2.07,3,.52.52,0,0,0-.31.19c.24-1.18,1.38-2.35,1.21-3.51l.14,0c.84-1,.66-2.46,1.42-3.6h0c.47.05.38-.59.36-.9.05-.6.55-1,.6-1.64,1-1.49,1.26-3.27,1.93-4.88.5-.17.42-1,.66-1.41a.36.36,0,0,0,.17,0c.44-1.06,1.2-2.32,1-3.46a10.21,10.21,0,0,0,1.45-5.62c.59-2.62,1-5.21,1.51-7.83.32.3.24.75.43,1.08A50.67,50.67,0,0,1,207.4,884.48Zm177.22,48.25a99.06,99.06,0,0,0-28.05-1.26c-1.1,0-2.67-.05-4.18-.05.65-.72,1.38-1.47,2.18-2.23,12.57-1,19.14-14.86,19.41-15.46a1.63,1.63,0,0,0-3-1.38c-.06.11-4.31,9.12-12.06,12.42a55.35,55.35,0,0,0,8.66-13.86,32.23,32.23,0,0,0,8.2-4.63,1.64,1.64,0,0,0-2-2.56,32.55,32.55,0,0,1-4.45,2.87,60,60,0,0,0,2.32-8.45c4.33-1.35,8.48-6.57,9-7.21a1.64,1.64,0,0,0-2.59-2,25.41,25.41,0,0,1-5.75,5.35c.17-1.34.31-2.69.39-4.06,13.24-6.34,14.85-24.11,14.92-24.88a1.64,1.64,0,0,0-3.27-.27c0,.17-1.36,15.2-11.56,21.39a53.21,53.21,0,0,0-.58-7.6A60.42,60.42,0,0,0,381,855.13a1.64,1.64,0,0,0-1.44-1.81,1.6,1.6,0,0,0-1.81,1.44,59.05,59.05,0,0,1-6.24,18.92c-2.22-17.93.47-27.19,1-28a1.63,1.63,0,0,0-2.66-1.9c-1.42,2-4.28,14-.95,35a55.86,55.86,0,0,1-7.45,37.09c2.22-13.58,1.3-35.11,1.25-36.21a1.63,1.63,0,1,0-3.26.14c0,.33,1.38,32.39-3,42.29a1.56,1.56,0,0,0-.12.79,36.83,36.83,0,0,1-3,3.08c-.7.62-1.33,1.24-1.94,1.85a52.17,52.17,0,0,0,.6-12.27c2.2-2.06,10.74-11.24,3.28-23-7-11,8.95-27.58,9.11-27.75a1.64,1.64,0,0,0-2.35-2.28c-.54.55-10,10.38-11.58,20.79a37.32,37.32,0,0,0-1.56-4.23,1.64,1.64,0,0,0-3,1.32c3.85,8.72,3.33,18.19,2.57,23.49-12-18.65-2.33-38.28-2.23-38.49a1.63,1.63,0,0,0-2.92-1.47c-.12.23-11.49,23.25,4.1,44.19a44.43,44.43,0,0,1,.69,19.5c-6-6.76-9.87-20.79-12.78-31.42-.67-2.43-1.29-4.69-1.88-6.67-.21-.7-.47-1.4-.76-2.11h0c-2.28-5.56-2.86-12.68-2.78-19,2.84-.87,5.6-5,6.84-7.11a1.64,1.64,0,0,0-2.82-1.67,23.93,23.93,0,0,1-3.9,5,102,102,0,0,1,1.31-12,1.64,1.64,0,1,0-3.22-.6,104.09,104.09,0,0,0-1.46,14.38,1.87,1.87,0,0,0,0,.53,77.17,77.17,0,0,0,.5,11.46c-1.18-1.49-2.45-2.94-3.74-4.32a92,92,0,0,0-6.89-22.47,1.64,1.64,0,1,0-2.94,1.44,87.9,87.9,0,0,1,5.64,16.83,107.69,107.69,0,0,0-8.95-7.6,1.63,1.63,0,1,0-2,2.62c.18.14,18.54,13.88,22,25.49.58,2,1.19,4.2,1.85,6.61,3.23,11.78,7.56,27.58,15.14,34.36-.11.46-.24.93-.37,1.4-1.51.27-3,.57-4.48.88A40,40,0,0,0,336.66,921a57.52,57.52,0,0,0-5.1-6.16c-4.15-13.24-19.09-41.14-19.73-42.34a1.64,1.64,0,0,0-2.89,1.55c.14.25,11.18,20.88,17,35-2.46-2.43-5.13-5-7.86-7.53h0a44.33,44.33,0,0,1-3.18-3.27h0a51.84,51.84,0,0,1-11.72-25.17,1.62,1.62,0,0,0-1.81-1.44,1.65,1.65,0,0,0-1.44,1.82,52.63,52.63,0,0,0,5,15.73c-5.61-5.36-10.23-10.07-11.37-12.42a1.64,1.64,0,0,0-2.94,1.44c1.78,3.66,9.12,10.66,17.94,18.9-5.15-1.52-10.94-5.29-13.27-7.05a1.63,1.63,0,1,0-2,2.6c.48.36,11.15,8.38,19.2,8.38h.25l3,2.78.13.13h0c4.84,4.55,9.47,9,13,12.82l.08.08a56.36,56.36,0,0,1,5,6,36.87,36.87,0,0,1,4.88,10.08c-12.34-3.29-14.55-19.87-14.57-20a1.64,1.64,0,0,0-3.25.4c0,.19,2.23,16.93,14.64,22-42.48,11.38-75.77,41.66-75.77,41.66l56.53,56.31L420,1027.33l26.15-30.43S447.37,944.9,384.62,932.73Zm-32.41-39c.09.16.18.32.28.47,4.87,7.68,1.5,13.92-1,17-.19-1.14-.4-2.08-.58-2.8A52.6,52.6,0,0,0,352.21,893.76Z" fill="#2c7cbb"/>
    <rect width="768" height="1024" fill="none"/>
  </g>
</svg>
