<svg xmlns="http://www.w3.org/2000/svg" viewBox="0 0 768 1024">
  <g>
    <path d="M260.39,120.2c.8.61,1.84.44,2.79.61,2.15.37,4.07,2.56,6.17,2,1.63-.43,2.54-2.35,3-4.13s.93-3.77,2.22-5c1.63-1.49,4.19-1.26,5.72-2.87,1.25-1.32,1.47-3.54,2.69-4.89,2.45-2.75,7.64-.8,9.42-4.13.5-.94.59-2.12,1.19-3,.85-1.2,2.39-1.34,3.75-1.56a4.92,4.92,0,0,0,2.33-.94c-.13,2.69.76,5.81-1,7.54-.81.8-2,1-2.85,1.69-2.77,2.16-1.51,7.59-4,10.19-1,1.06-2.46,1.45-3.46,2.5-2.05,2.17-1.38,6.08-2.67,8.9a11.31,11.31,0,0,1-3.7,4,11.88,11.88,0,0,0-3.77,4c-.83,1.71-.79,4.16.59,5.42.59.54,1.38.83,1.84,1.52,1.38,2.11-1.61,5.22-.34,7.41a2.33,2.33,0,0,0,2.47,1,6.67,6.67,0,0,0,2.49-1.29l1.8-1.29a3.19,3.19,0,0,0,1.41-1.64c.43-1.64-1.43-3-1.55-4.76a3.42,3.42,0,0,1,2.3-3.1c1.2-.52,2.55-.7,3.6-1.52,2.5-1.95,2.26-6.52,4.63-8.67.92-.85,2.15-1.2,3.08-2a5.14,5.14,0,0,0,1.58-4.26c-.12-1.28-.69-2.55-.43-3.78a4.15,4.15,0,0,1,2.59-2.7l1.08-.48a4.34,4.34,0,0,1,1.06,2.62,4.66,4.66,0,0,1-.83,2.34c-1.34,2.18-3.22,4.32-3,7,.17,2.18,1.76,4,1.79,6.23.05,3.73-4.38,6.2-3.91,9.9.2,1.51,1.2,2.81,1.27,4.33.12,3.1-3.57,4.83-3.85,7.9-.17,1.92,1.07,3.78.85,5.7-.38,3.35-4.86,4.66-5,8.05a15.19,15.19,0,0,0,.56,3.1c.63,3.57-1.52,7-1.41,10.63,0,1.49.64,3.15,1.89,3.66a2.9,2.9,0,0,0,1.82,0c3-.77,5.07-4.39,4.51-7.78a6.42,6.42,0,0,1-.22-2.08c.26-1.81,2.3-2.34,3.5-3.56a4.53,4.53,0,0,0,1.12-3.87c-.13-.8-.48-1.55-.64-2.35a5,5,0,0,1,2-5.09,9.44,9.44,0,0,0,1.73-1.08c1.07-1.06,1-3,.68-4.57s-.73-3.34-.07-4.77,2.36-2.2,2.91-3.77-.36-3.54-.68-5.34a7.3,7.3,0,0,1,1.67-6c.77-.85,1.8-1.52,2.15-2.68a3.6,3.6,0,0,0-.15-2.31,22.68,22.68,0,0,0,1.88,2.5,8.7,8.7,0,0,1,1,8.09c-.94,2.33-2.91,4.06-3.52,6.54a6.64,6.64,0,0,0,1.09,5.43,26.06,26.06,0,0,1,1.72,2.06c1.05,1.72.82,4,.3,6s-1.28,3.94-1.16,6,1.56,4.27,3.4,4.12c2.14-.17,3.34-3.28,5.48-3.47.5,0,1,.08,1.51.07,1.73-.05,3.09-1.77,3.56-3.63a18.4,18.4,0,0,0,.11-5.79,16.72,16.72,0,0,1,.05-3.81c1.55.94,3.54,1.44,3.81,3.3a4.06,4.06,0,0,1-.48,2.26c-1,2.14-2.32,4.08-2.92,6.38s-.2,5.25,1.66,6.5a5.23,5.23,0,0,1,1.67,1.2,4.24,4.24,0,0,1,.48,1.86,13.29,13.29,0,0,0,2.44,6.15,2.43,2.43,0,0,0,.84.79,1.86,1.86,0,0,0,1.59-.15c2.59-1.23,4.06-4.48,4.15-7.65a20.72,20.72,0,0,0-2.29-9.11c-.67-1.46-1.44-3-1.22-4.62.2-1.44,1.15-2.56,1.79-3.81a9.71,9.71,0,0,0-.42-9.22c-1-1.52-2.4-2.85-2.57-4.7-.25-2.94,2.91-5,2.88-8,0-2.34-2-4-3.29-5.86a11.31,11.31,0,0,1-1.95-6.5c0-2,.58-4.08,0-6-.92-2.94-4.22-4.32-5.17-7.26a25.1,25.1,0,0,1-.52-2.61c-.8-3.77-2.92-6.14-2.62-10.21a19.87,19.87,0,0,0-.06-4.43,12.46,12.46,0,0,1,1.16.57A6.09,6.09,0,0,1,332.34,99c.11,1.94-.63,3.95,0,5.75,1.27,3.37,6.52,3.45,7.1,7,.28,1.72-.78,3.44-.46,5.15.45,2.36,3.15,3.28,4.2,5.4.82,1.68.45,3.72.21,5.59s-.24,4.1,1.06,5.35c.82.79,2,1,2.81,1.79,1.31,1.24,1.36,3.42,1.58,5.32s1.1,4.14,2.8,4.27a3.59,3.59,0,0,0,1.08-.13c2.79-.69,5.88-2.33,6.4-5.49a8.41,8.41,0,0,0-1.78-5.94,7,7,0,0,1-1.35-2.48c-.5-2.43,1.94-4.63,1.48-7.07s-3.82-3.47-4.37-6c-.43-2,1.12-4,.87-6-.38-3.12-4.51-4.39-4.83-7.52-.14-1.34.5-2.59.66-3.91a5.56,5.56,0,0,0-2-5c-1.17-.89-2.73-1.22-3.55-2.5-.93-1.47-.47-3.48-.78-5.25-.36-2.12-1.7-3.15-3.26-4.1A13.7,13.7,0,0,1,338,81.15l8.62-5.33A3.85,3.85,0,0,0,348,74.61c.73-1.22.17-2.91-.6-4.13A9.4,9.4,0,0,0,340.45,66c-2.59-.27-4.8-2.22-7.4-2.34a32.8,32.8,0,0,0-8.83.89c-.54.13-1.07.28-1.6.45a4.62,4.62,0,0,0-1.92-1.65,10.18,10.18,0,0,0-4-.68c-2.58-.09-5.45-.07-7.32,1.89a1.77,1.77,0,0,0-.57,1,2.44,2.44,0,0,0,.65,1.63l.12.17c-1.64-.12-3.25-.17-4.57-.35a44.81,44.81,0,0,0-11-.62A15.6,15.6,0,0,0,284.07,71a8.63,8.63,0,0,0-2.52,6.1c.16,3.52,3.14,6.22,6.19,7.12a15.74,15.74,0,0,0,4,.58c-2,2-3.52,5.22-6.16,6.17-1.5.54-3.16.25-4.7.62A6.27,6.27,0,0,0,276.77,95c-1,2.12-1.21,5.06-3.13,6.14a9.54,9.54,0,0,1-2.23.66,7.12,7.12,0,0,0-4.8,6.62,1.67,1.67,0,0,1-.14.78,1.27,1.27,0,0,1-.67.49,11.81,11.81,0,0,0-5.72,5.89C259.4,117.07,259.14,119.24,260.39,120.2Zm66.35-37.15a.88.88,0,0,1-.05.15,1.86,1.86,0,0,0-.1-.2Zm-13.2,43.69c-.16-2.3,1.66-4.07,2.4-6.22.63,3.1-1.94,6.67-1.14,9.76A10.81,10.81,0,0,1,313.54,126.74ZM169.06,150.08c1.39,2.57.59,4.4-.8,6.21-4.24,5.51-7.38,11.44-8.26,18.48-.18,1.44-1.39,2.75-2.13,4.15,2.59,2.24,4,1.78,5.1-1.61,1.42-4.31,2.84-8.62,4.53-12.83a9.56,9.56,0,0,1,3.35-3.58c1.43,8.95,1.54,17.42-4,25.2a30,30,0,0,0-4.6,10.07c-1.35,5.65-3.87,10.45-8.45,13.86-5.32,4-5.57,10.36-8.21,15.61-.22.45.43,1.34.67,2,.91-.48,2.25-.73,2.65-1.48,1.64-3.09,3-6.33,4.47-9.51.5-1.07,1.1-2.11,1.66-3.16l1.13.36c-1,4.32-2.13,8.63-3.05,13a42.35,42.35,0,0,1-7.54,16c-1.81,2.52-3.92,4.35-7.26,4.56-.92.06-1.78,1.21-2.66,1.86,1,.7,1.88,1.91,2.88,2a7.44,7.44,0,0,0,4.06-1.2,31.9,31.9,0,0,0,12.29-13.17c1-2.09,1.13-4.62,1.87-6.87,2.75-8.4,5.59-16.77,8.39-25.15.64-1.9,1.25-3.8,1.87-5.71l1.18.12a67,67,0,0,1,.12,7.22c-.56,6.25-1.12,12.51-2.09,18.7-.46,3-1.75,5.88-2.84,8.75a12.36,12.36,0,0,1-2.21,3.73c-1.39,1.57-3.19,2.78-4.54,4.39-.74.87-.91,2.23-1.33,3.38a14.74,14.74,0,0,0,3.51-1.24,50.42,50.42,0,0,0,4.66-4.17c-.15,5.3-3.23,7.85-5.36,11-3.26,4.83-6,10-8.85,15.14-.18.33.25,1.31.67,1.59s1.57.7,2,.43a7.62,7.62,0,0,0,2.44-2.32c3-4.52,6.21-8.93,8.69-13.73a114.38,114.38,0,0,0,6-14.78c2.31-6.63,2.46-13.53,2.69-20.53.28-8.66.83-17.54,3.05-25.84,3.61-13.45,8.67-26.51,13.15-39.72a38.19,38.19,0,0,1,3.69-8.15c0,1.16.14,2.32.06,3.47-.26,3.63-.67,7.25-.88,10.88-.48,8.55-1.37,17-4.78,25-.74,1.72-2.63,2.93-3.84,4.49a84.69,84.69,0,0,0-5.76,8c-.48.79.26,2.32,1,3.68,2.58-4.58,5.8-7.92,11.54-9.21-.59,2.84-1,5.53-1.72,8.16-1.8,6.83-3.69,13.64-5.6,20.44-1.37,4.9-3.51,9.69-4.11,14.67-1.08,9-5.21,16.55-9.36,24.22-2.57,4.76-5,9.61-7.68,14.3-.87,1.51-1.63,2.87.32,3.53a3.94,3.94,0,0,0,3.44-1.38c3-4.45,5.69-9.1,8.85-14.26,1.39,4.4,1.59,7.8-1,11.19-2.8,3.62-2.64,3.85,0,5.51,4.2-4.89,8.21-9.63,5.66-17a10.24,10.24,0,0,1,.69-7.57c4.6-7.91,5.87-16.62,7.15-25.38a7.85,7.85,0,0,1,.3-1.7c2.18-5.67,4.64-11.25,6.52-17,2.05-6.28,4.16-12.63,5.13-19.12,1-6.84.79-13.88,1-20.84s.18-13.68.35-20.52c0-.94.64-1.86,1.23-3.48,1.25,3,2.14,5.39,3.26,7.68a11.77,11.77,0,0,0,2.13,2.36c.48-1.09,1.43-2.23,1.34-3.28-.44-5.25-1.18-10.47-1.76-15.71a50.88,50.88,0,0,1-.53-7.17c.06-1.88,1.31-2.75,2.55-.8,3.07,4.87,6,9.83,8.72,14.89.45.83-.08,2.56-.71,3.53-1.63,2.5-3.81,4.67-5.3,7.25a19.06,19.06,0,0,0-1.85,6.1,18.71,18.71,0,0,0,.21,4.27c2.61-.24,1.14-2.6,1.93-3.69,2.44-3.35,5.07-6.55,7.74-9.95,4.78,5.66,4,10.62.08,13.69-8.88,6.94-14.66,16.24-18.34,26.62-1.38,3.88-.78,8.71-.2,13a19.83,19.83,0,0,1-3.57,14.22,12.15,12.15,0,0,0-2.28,8.37c.12,1.25-.88,2.61-1.42,3.9-.41,1-.91,1.92-1.62,3.41,4.82-1.21,6.48-3.1,6.9-6.95s1.37-7.38,4.93-10.87c-.55,3.23-.93,5.49-1.32,7.74l1.12.65a11.12,11.12,0,0,0,1.79-2.26,19.13,19.13,0,0,0,1-12.46,5.38,5.38,0,0,1,1.9-6c4.92-4.24,5.88-10.85,9.09-16.13a34,34,0,0,1,3-3.88c1.42-1.7,2.82-3.41,4.37-5a6.58,6.58,0,0,1,2.29-.95c.33.9,1,1.83,1,2.7-.36,4.33-.41,8.68-5,11.45-2,1.21-2.81,3.76-1,6.51a21.34,21.34,0,0,1,2.11-2.3,29.16,29.16,0,0,1,2.9-1.86c.45,1.14,1.53,2.5,1.23,3.38-1.27,3.71-2.52,7.55-4.57,10.85-3.87,6.22-8.17,12.18-12.5,18.1-5.19,7.1-10.54,14.09-16,21-1.06,1.35-3,2-4.22,3.24a37.58,37.58,0,0,0-4.05,4.76,1.78,1.78,0,0,0,.4,1.71,2.07,2.07,0,0,0,1.79-.33c6-4.58,11.78-9.39,16.58-15.33,6.09-7.54,12.5-14.82,18.8-22.19a11,11,0,0,1,1.48-1.21l.81.51a25.91,25.91,0,0,1-1.73,2.93c-7.34,9.6-14.61,19.25-22.13,28.71A101.89,101.89,0,0,0,190.21,267a13,13,0,0,1-5.75,5.35c-5,2.45-8.27,6.37-11.06,10.87-.51.82-.33,2.07-.47,3.12l1,.56c2-2.43,4-4.9,6.13-7.27s4.24-4.53,8.37-5.09a34.46,34.46,0,0,0-2.86,4.13,9.25,9.25,0,0,0-.41,2.88c1.18,0,2.88.54,3.47-.05,3.75-3.73,7.28-7.63,8.56-13.08.87-3.67,1-7.74,5-10.45-.28,2-.42,4-.88,5.88-.36,1.52-1.44,2.92-1.57,4.42-.09,1.11.86,2.3,1.34,3.45.84-.79,2.12-1.42,2.44-2.38,1.45-4.38,3.59-8.65,1.47-13.57-1-2.41.53-4.45,2.3-6.36,3.11-3.35,5.86-7,8.83-10.5a24,24,0,0,1,3.83-3.77c5.79-4.34,9.15-10.19,11.06-17a34.86,34.86,0,0,1,1.65-4l.63.17c.08,3.72.74,7.53.12,11.13a184.1,184.1,0,0,1-4.66,19.18c-.55,1.92-2.07,3.63-3.4,5.23-3.74,4.49-7.74,8.78-11.36,13.37-1.07,1.35-1.21,3.44-1.77,5.18,3.27,1.53,3.37-.83,4.23-2.25,2.1-3.45,4.25-6.88,6.49-10.24.35-.52,1.3-.64,2.26-1.08-1.05,4-2.41,7.57-2.86,11.26a23,23,0,0,1-5.16,12c-.54.66,0,2.16,0,3.27,1.07-.29,2.66-.24,3.13-.94,3.21-4.78,6.18-9.71,9.55-15.11-.41,2.18-.45,4.27-1.21,6.06-1.5,3.5-3.47,6.8-5.07,10.26-.29.64.22,1.64.35,2.47a7.37,7.37,0,0,0,2.65-.84c.62-.53.72-1.63,1.16-2.43,1.33-2.45,2.81-4.82,4.06-7.32,1.81-3.62,1.77-7.36,1-11.33a21,21,0,0,1,0-8.53c1.32-5.79,3.23-11.45,4.87-17.07,1.89,1,1.89,1,.64,11.69,1.52-1,2.82-1.33,3.4-2.19,2.67-3.92,3.5-10.65-.57-14.75-1.89-1.9-2.07-3.83-1.76-6.49.62-5.47,2.59-10.85.87-16.59-.9-3-.36-6.4-.71-9.59a33.64,33.64,0,0,0-1.37-6.26,6.58,6.58,0,0,1,3.35-7.39c1.53-.74,3-1.6,4.52-2.37.16-.08.43.07,1.28.25-1.84,4.64-3.65,9.21-5.73,14.44,6.57-2.76,10-11.33,8-17.59-.27-.87.9-2.1.93-3.18A57.71,57.71,0,0,0,247.07,155a124.31,124.31,0,0,1-3.62-12.32c-2.19-8.71-6.7-16.52-14.59-21.59-5.47-3.51-11.28-6.48-16.72-10a17.93,17.93,0,0,1-5.82-5.77c-2.36-4.16-6.48-4.56-10.26-5.6-.9-.25-2.75,1.13-3.45,2.21-3.1,4.84-5.94,9.85-8.88,14.8-2.36,4-4.83,7.9-7.06,12-2.78,5-5.59,10.09-7.9,15.34A7.75,7.75,0,0,0,169.06,150.08Zm69.47,4.64c.29-.09,1.05.92,1.39,1.54a34.27,34.27,0,0,1,4.55,15.49c.08,1.67,1.92,3.26-.15,4.93-1.44,1.16-2.72,2.52-4.46,4.15-1.07-2.61-2.14-4.28-2.4-6.07-.62-4.24-.94-8.53-1.2-12.81a23.23,23.23,0,0,1,.38-5.71C236.75,155.6,237.79,155,238.53,154.72Zm-33.18,40.93c-1.11-4.46,1.75-10.27,5.94-12.48C209,187.93,207.18,191.79,205.35,195.65Zm8.05-18.5c-.48-2.73,2.27-6.72,5.75-8C219.16,173.43,217.1,176.2,213.4,177.15Zm6.39-53c5.61,4.2,11,8.63,14.39,15,1.68,3.17.39,6.51-3.41,8.8l-12.15-23.64C219.17,124.19,219.6,124,219.79,124.14Zm-32,2.29,1.21.36L181.22,152l-1.18-.28A50.23,50.23,0,0,1,187.81,126.43Z" fill="#2c7cbb"/>
    <rect width="768" height="1024" fill="none"/>
  </g>
</svg>
