<svg xmlns="http://www.w3.org/2000/svg" viewBox="0 0 152 130"><path d="M75.37,40.62a15.73,15.73,0,0,0,1.3-1.28A37.18,37.18,0,0,1,86.73,30.6c6.08-3.56,12.65-6.3,20.58-5.3,3.26.41,6.59.78,10.1-.22,1-.3,2.79.37,3.89.94,6.28,3.29,10.2,7.83,10.79,13.81a21.37,21.37,0,0,1-1.7,9.29c-1.54,4.2-2.92,8.41-4.37,12.62a3.91,3.91,0,0,1-.39,1.15c-1.74,2.37-1.77,5-2.88,7.49-1.43,3.17-2.24,6.55-5.46,9.22a3.42,3.42,0,0,0-.73,1.3,12.51,12.51,0,0,1-3.42,4c-2.22,1.9-4.74,3.64-6.35,6a17.93,17.93,0,0,1-4.13,4c-1.8,1.31-3,2.71-3.24,4.53a2.69,2.69,0,0,1-.6,1.31c-1.32,1.54-2.71,3-4.09,4.55-.11.12-.36.16-.72.3l-2.12-1.63c-.35.07-.64.06-.73.15-1.79,2-3.66,3.88-5.3,5.9a16.55,16.55,0,0,0-1.4,2.87,21.4,21.4,0,0,1-1.6,2.53c-1.8,2.44-5.15,4.24-5.67,7.23-.09.51-.62,1-1,1.61-2.91-.41-5.56-.87-7.07-3-.64-.92-1.45-2.08-3.59-1.31-.39.14-1.3-.34-1.75-.7-2-1.64-4-3.35-6-5a30.61,30.61,0,0,0-3.47-2.78A77.9,77.9,0,0,1,36.65,96.41C30.18,89.19,24.8,81.53,21.28,73.09a49.75,49.75,0,0,1-4-20,28.88,28.88,0,0,1,3.12-13.19c1.36-2.59,2.26-5.27,4.15-7.75a17,17,0,0,1,5.42-5A6.62,6.62,0,0,0,31.65,26c1.31-1.42,3.14-1.76,5.18-2a46.94,46.94,0,0,1,21.45,2.51c5.25,2,9.39,4.8,11.55,9.08a12,12,0,0,0,5.54,5" fill="#ec1c24"/><path d="M47.09,10.41a3.08,3.08,0,0,1,1.9.47,5.6,5.6,0,0,0,1.23.64,2.82,2.82,0,0,1,1.57,2.76A3.83,3.83,0,0,1,49.54,18a4.15,4.15,0,0,1-1.55.1A3.31,3.31,0,0,1,45.63,17a7.29,7.29,0,0,0-1.36-1,6.87,6.87,0,0,1-1.61-2.45c-.15-.46,0-.76.82-1.52a5.84,5.84,0,0,1,3.61-1.54M34,.14A4.89,4.89,0,0,0,30.4,1.72C29.26,3,29.66,4.53,31.78,7.1,33.71,9.45,34.86,10,36.4,9.15A4.21,4.21,0,0,0,38.75,4.2,8.17,8.17,0,0,0,35.14.39,3.37,3.37,0,0,0,34,.14M21.55,16.08a4.65,4.65,0,0,0-3.7,2.37,3.12,3.12,0,0,0-.51,1.78,7.71,7.71,0,0,0,3.87,5.3,4.51,4.51,0,0,0,5.94-3.78,9.47,9.47,0,0,0-1.72-3.67,4.59,4.59,0,0,0-3.88-2m126,77.49a75.54,75.54,0,0,0,4.12-7.13c-3.51-5.53-14.13-4.46-26.12.16-21.37,8.22-47.14,27.87-45.14,42.54a50,50,0,0,0,16.83,0c20.82-3.45,39.53-19,50.31-35.58M5.18,68.89a38.63,38.63,0,0,0-4.44,0C-.88,72,2.49,76.69,7.88,81c9.62,7.73,25.75,14.42,32,9.52a27.07,27.07,0,0,0-4.55-7.84C28.13,73.93,15.81,69.43,5.18,68.89" fill="#62ba46"/><path d="M74.81,62.91a3.09,3.09,0,0,0,2,.21c.64-.18.49-1.15,0-1.48-1.6-1.32-4.1-2-4.64-4.24,6.5-5.66-.5-10.56-6.23-6.25a1.94,1.94,0,0,0-1.29-1.78,2.43,2.43,0,0,0-.73.26c-1.37.78-1.17,3-1.46,4.43a37.72,37.72,0,0,0-.1,7.36c-1.6-1.14-3.86-1.9-4.38-4a9.28,9.28,0,0,0,2.37-3.13c1.12-2.36-1.2-4.73-3.56-4.78a8.36,8.36,0,0,0-5.34,1.87,9.43,9.43,0,0,0-10-1,1,1,0,0,0-.52.64,1.19,1.19,0,0,0,.48,1.34,2,2,0,0,0,1,.24c.75,0,1.39-.48,2.15-.42a10,10,0,0,0-.26,3.37c0,.11,0,.11-.12.11-1,.13-2.13.21-3.16.31L41,56c-.18.51-.42,1.11.16,1.44a6.73,6.73,0,0,0,2,.74l1.07.06a.57.57,0,0,1,.59.5c.41,1,.23,2.94,1.68,2.93.48,0,1.11-.29,1.14-.81l.06-.81a14.61,14.61,0,0,0-.1-2.2c0-.06,0-.08.06-.08l.75-.27a5.93,5.93,0,0,0,3.85-3.09,2.77,2.77,0,0,0,.26-1.17,4.19,4.19,0,0,1,1.32-.74c-.36.31-.88.54-1,1.07a13.13,13.13,0,0,0-.06,1.52,62,62,0,0,0,.39,7.08c0,.43.17,1.11.71,1.1.36,0,.79.09,1.11-.11,1.32-1,.46-2.89.69-4.3a8.13,8.13,0,0,0,4.91,4,3,3,0,0,0,2,.2.79.79,0,0,0,.9.63l.53-.06,0,0c1.1-1.49.77-3.44,1.06-5.17a21.81,21.81,0,0,1,.54-4.31A6.12,6.12,0,0,1,68,52.54c-.35.32-.87.54-1,1.07A11.23,11.23,0,0,0,67,55.13a62,62,0,0,0,.38,7.08c0,.43.17,1.11.71,1.1.37,0,.79.09,1.12-.11,1.32-1,.46-2.89.69-4.3A8.14,8.14,0,0,0,74.81,62.91ZM49,54a12.17,12.17,0,0,1-1.54.67c-.09,0-.13,0-.16-.16-.14-.74-.27-1.52-.36-2.26a4.51,4.51,0,0,1,2.66,1A.9.9,0,0,1,49,54ZM58,53a7.93,7.93,0,0,1-2.27,3.56.1.1,0,0,1-.14,0c-.16-1.15.34-2.42-.47-3.4-.22-.21-.33-.51-.67-.51a1.89,1.89,0,0,1-.52-.09C54.86,51.64,58.22,50.9,58,53Zm14.19,0a7.93,7.93,0,0,1-2.27,3.56.11.11,0,0,1-.15,0c-.16-1.15.34-2.42-.46-3.4-.22-.2-.34-.51-.67-.51a2,2,0,0,1-.53-.09C69.05,51.64,72.41,50.9,72.18,53Zm4.09,3.46a6.36,6.36,0,0,0,1,2.43A4.32,4.32,0,0,0,80.16,60c2.9-.1,4.73-3.69,3.32-6.16-.28-.42-.08-.94-.32-1.36A3,3,0,0,0,80,50.89a4.65,4.65,0,0,0-2.09,1.34,1.88,1.88,0,0,0-.93,1c-.18.62-.6,1.09-.75,1.73A3.42,3.42,0,0,0,76.27,56.41Zm3.32-1.92a3.31,3.31,0,0,1,.86-.76c.76,1.36,1.54,2.79-.33,3.67a.53.53,0,0,1-.73-.25A2.49,2.49,0,0,1,79.59,54.49Zm9.83,7.64c2.88-1.81,7.15-4.4,6.16-8.38-1.13-2.93-4.44-4-7.27-4.53-.92-.12-1.78-.2-2.7-.23a2.58,2.58,0,0,0-1.8.44c-.4.52-.41,1.78.32,2,.44.08.87.19,1.28.29a14.09,14.09,0,0,0-.08,5.89c.21.89.15,2.16,1.19,2.47A1.31,1.31,0,0,0,87.68,60l0,0a6.18,6.18,0,0,1-1.6,1c-1.27.74-2.68,1.15-4,1.79a.93.93,0,0,0-.33.42,1.06,1.06,0,0,0,.35.32,2.34,2.34,0,0,0,1.94.44C86,64,87.76,63,89.42,62.13Zm-1.09-2.37c-.18.07-.4.17-.59.23.51-1.13.11-2.62.1-4s.28-2.62.25-3.92c0-.06,0-.1.08-.1a2.58,2.58,0,0,1,.77.12,9.33,9.33,0,0,1,2.57.89,2,2,0,0,1,1.4,1.48c.18.77-.46,1.5-.75,2.14A27.79,27.79,0,0,1,88.33,59.76Zm18.14-4.49a.7.7,0,0,0-.75-.55c-.43,0-1,0-1.4,0a.37.37,0,0,1-.35-.25c-.63-1.79-.8-4-2.31-5.33-.57-.45-1.84-.47-2,.35-.4-.1-.86-.27-1.24,0a3.11,3.11,0,0,0-1.16,1.56,29.25,29.25,0,0,0-1.29,5.85c-.16,1.7-1.32,5.21,1.21,5.54.4,0,1-.14,1.08-.64.15-.82.28-1.62.38-2.47.07-.42.53-.56.89-.68a12.19,12.19,0,0,1,1.87-.47c.2,0,.28.19.3.35.25,1,.45,2.09.73,3.15a1.08,1.08,0,0,0,1.18.53,3,3,0,0,0,1.19-.74,5.69,5.69,0,0,0,0-3.37c0-.32-.22-.79.19-.93,0-.07.55-.28.58-.31A1.28,1.28,0,0,0,106.47,55.27Zm-5.68,0a.78.78,0,0,1-.53.19,5.58,5.58,0,0,1-.85.14c-.14,0-.18-.08-.18-.18a24.7,24.7,0,0,1,.57-2.64.5.5,0,0,1,.16-.27,7,7,0,0,1,.39,1,11.37,11.37,0,0,0,.48,1.69C100.83,55.21,100.83,55.21,100.79,55.23ZM55.46,78.1c.31,1.34.22,2.9-1.6,2.35-.7-.19-.88-1-1-1.61-.33-1.18-.54-2.35-.75-3.54-.34.21-.79.56-1.13.78-1,.71-2.36.41-3.51.25-.14,0-.22.12-.22.29-.07,1,.5,2,.47,3-.07.69-1,.75-1.5.56-1.71-.59-1.78-3.16-1.77-4.68-.07-.77.55-1.57.21-2.16a3.75,3.75,0,0,1-.35-1.52c.08-.2-.09-.35.06-.54s.43-.62.77-.66a.91.91,0,0,1,.39-.08,2.6,2.6,0,0,1,1.27,1.24,13.93,13.93,0,0,0,1,1.79,1.74,1.74,0,0,0,2.37-.27c1.7-1.63,1.1-4.19,1.4-6.3.08-.45.58-.9,1-.7s1,.24,1.42.66a1.09,1.09,0,0,1,.32.72c.11,1,.2,2,.23,3A44.63,44.63,0,0,0,55.46,78.1ZM64.7,67c1.37,1.53-1.67,2.85-2.82,3.34a11.66,11.66,0,0,0-2,.88.39.39,0,0,0-.29.31,14.06,14.06,0,0,0-.22,1.61c1.09-.32,4.78-2.82,5.17-.91a1,1,0,0,1-.35,1.07,16.63,16.63,0,0,1-3.83,2.41c-.37.27-.9.14-1.34.21-.28,0-.15.64-.18.84.07.41-.15,1.56.42,1.61a9.8,9.8,0,0,0,3.49-1.71c.42-.23.59-.83,1.12-.91a.76.76,0,0,1,.69.13c.25.22.21.63.26.94-.21,2.19-3.6,4.47-5.69,4.29-4.68-.7-3.19-8.77-1.57-11.66.06-.3.34-.23.49-.45.55-.74,1.58-.81,2.37-1.11a22.7,22.7,0,0,1,3.77-1.05A.57.57,0,0,1,64.7,67Zm16.15,3.34c-.93,2.68-1.73,5.34-2.39,8.09a.75.75,0,0,1-.71.68,2.1,2.1,0,0,1-2.21-.89c-.3-.53-.93-1.48-1.28-2a14.55,14.55,0,0,1-2-5.28,1.22,1.22,0,0,1,2-1.27c1.49,1,1.33,3.17,2.27,4.53a34.15,34.15,0,0,1,3.08-6.63c.2-.43.74-.71,1.08-.27C81.55,68.12,81.11,69.3,80.85,70.32Zm6.91,1.11c-.05-1.54-1.92-2.55-3.3-2.25a4.68,4.68,0,0,0-2.09,1.34,1.91,1.91,0,0,0-.93,1c-.28.88-1,1.62-.79,2.62a6.36,6.36,0,0,0,1.13,3,4.08,4.08,0,0,0,3.59,1,4.29,4.29,0,0,0,3-3.87C88.56,73.13,88,72.42,87.76,71.43Zm-2,2.88a1.77,1.77,0,0,1-1.15,1.38c-.63.3-.93-.54-1-1A2.6,2.6,0,0,1,84.9,72C85.22,72.74,85.83,73.46,85.73,74.31ZM103.2,69c.16,2.47-.68,5.26-.71,7.8-.28,1.64.05,3.5-.91,4.94-.06,0-.1.21-.18.25l-.53.06c-.91.11-1-.91-1.07-1.58a22.91,22.91,0,0,1-.25-4.15c-1.39,1.34-3.43,1.87-5.18,2.58s-3.55,1-4.85-.43a1.32,1.32,0,0,1-.38-.86,16.18,16.18,0,0,1-.29-3.46,25.39,25.39,0,0,1,.49-4.91,1.88,1.88,0,0,1,.22-1.07,1.14,1.14,0,0,1,1.73-.55,2.59,2.59,0,0,1,1.27,3,20.8,20.8,0,0,0-.42,5.34c2.36-.39,4.53-1.5,6.93-1.71a.79.79,0,0,1,.59.23,27.29,27.29,0,0,1,.68-5.34,1.72,1.72,0,0,1,.92-1.19,2.15,2.15,0,0,1,.72-.27A1.83,1.83,0,0,1,103.2,69Z" fill="#fff"/></svg>